<svg width="142" height="43" fill="none" xmlns="http://www.w3.org/2000/svg"><g clip-path="url(#clip0_1_330)"><path d="M136.759 42.5H5.721c-2.883 0-5.242-2.362-5.242-5.25V5.75C.479 2.862 2.838.5 5.721.5h131.038C139.641.5 142 2.862 142 5.75v31.5c0 2.888-2.359 5.25-5.241 5.25z" fill="#fff"/><path d="M136.759.5H5.721C2.838.5.479 2.862.479 5.75v31.5c0 2.888 2.359 5.25 5.242 5.25h131.038c2.882 0 5.241-2.362 5.241-5.25V5.75c0-2.888-2.359-5.25-5.241-5.25zm0 .84a4.411 4.411 0 014.402 4.41v31.5a4.412 4.412 0 01-4.402 4.41H5.721a4.412 4.412 0 01-4.403-4.41V5.75A4.412 4.412 0 015.72 1.34h131.038" fill="#000"/><path d="M50.188 11.256c0 .88-.26 1.58-.78 2.102-.593.622-1.364.933-2.312.933-.907 0-1.68-.315-2.314-.946-.636-.63-.953-1.412-.953-2.345 0-.933.317-1.714.953-2.345.635-.63 1.407-.946 2.314-.946.45 0 .882.088 1.292.264.409.177.737.41.983.704l-.553.554c-.416-.498-.99-.747-1.722-.747a2.39 2.39 0 00-1.717.7c-.484.466-.725 1.071-.725 1.816 0 .745.241 1.35.725 1.817a2.39 2.39 0 001.717.7c.703 0 1.288-.235 1.757-.704.304-.306.48-.73.527-1.276h-2.284v-.757h3.048c.03.165.044.323.044.476" fill="#000"/><path d="M50.188 11.255h-.105c0 .86-.252 1.528-.75 2.029h-.001v.002c-.574.6-1.31.898-2.236.9-.883-.002-1.623-.304-2.24-.916-.617-.613-.922-1.361-.923-2.27.001-.91.306-1.658.922-2.27.618-.613 1.358-.915 2.241-.916.437 0 .853.085 1.25.255.397.172.71.396.945.675l.08-.067-.074-.075-.553.555.074.074.08-.068c-.435-.523-1.047-.786-1.802-.785-.687 0-1.29.245-1.79.73-.505.485-.758 1.124-.757 1.892-.001.767.252 1.406.757 1.892.5.484 1.103.73 1.79.729.726.001 1.344-.245 1.83-.734.326-.327.51-.779.559-1.341l.01-.114H47.2v-.547h2.943v-.105l-.103.018c.028.16.042.31.042.457h.21c0-.16-.015-.323-.046-.494l-.015-.086h-3.24v.967h2.388v-.105l-.104-.01c-.046.529-.214.927-.497 1.211-.45.45-1.004.672-1.683.673-.637 0-1.178-.22-1.645-.67-.462-.447-.691-1.019-.693-1.741.002-.723.231-1.294.693-1.742a2.282 2.282 0 011.645-.67c.709.002 1.244.237 1.642.71l.074.088.633-.635.068-.068-.062-.074a2.693 2.693 0 00-1.022-.733 3.344 3.344 0 00-1.333-.272c-.932-.001-1.736.327-2.388.976-.655.648-.985 1.463-.984 2.42-.001.956.329 1.771.984 2.42.652.649 1.456.976 2.388.975.97.001 1.776-.322 2.387-.964l-.076-.073.074.074c.543-.543.812-1.277.812-2.177h-.105zm4.832-2.631h-2.865v1.997h2.584v.757h-2.584v1.998h2.865v.774h-3.672v-6.3h3.672v.774z" fill="#000"/><path d="M55.02 8.624V8.52h-2.97v2.208h2.584v.546H52.05v2.208h2.864v.564h-3.462v-6.09h3.462v.67h.105V8.52v.105h.105v-.879h-3.882v6.51h3.882v-.984H52.26v-1.787h2.583v-.967H52.26V8.729h2.865v-.105h-.105zm3.408 5.526h-.809V8.624h-1.756V7.85h4.322v.774h-1.757v5.526" fill="#000"/><path d="M58.428 14.15v-.105h-.704V8.52h-1.756v-.564h4.112v.564h-1.757v5.631h.105v-.105.105h.105V8.73h1.757v-.985h-4.532v.984h1.756v5.526h1.019v-.105h-.105zm4.884 0v-6.3h.808v6.3h-.808" fill="#000"/><path d="M63.312 14.15h.105V7.955h.598v6.09h-.703v.105h.105-.105v.105h.913v-6.51h-1.017v6.51h.104v-.105zm4.393 0h-.808V8.624H65.14V7.85h4.322v.774h-1.757v5.526" fill="#000"/><path d="M67.705 14.15v-.105h-.704V8.52h-1.756v-.564h4.112v.564h-1.756v5.631h.104v-.105.105h.105V8.73h1.757v-.985h-4.532v.984h1.757v5.526h1.018v-.105h-.105zm5.924-1.341a2.308 2.308 0 001.709.707c.674 0 1.244-.235 1.708-.707.466-.473.7-1.076.7-1.809 0-.733-.234-1.336-.7-1.808a2.306 2.306 0 00-1.708-.708c-.674 0-1.243.236-1.709.708-.465.472-.698 1.075-.698 1.808 0 .733.233 1.336.698 1.809zm4.015.527c-.618.637-1.387.955-2.306.955-.92 0-1.688-.318-2.305-.955-.62-.636-.927-1.415-.927-2.336 0-.92.308-1.7.927-2.336.617-.637 1.385-.955 2.305-.955.914 0 1.68.32 2.302.96.62.639.931 1.416.931 2.331 0 .92-.31 1.7-.927 2.336z" fill="#000"/><path d="M73.63 12.808l-.075.074c.482.49 1.085.74 1.783.739.698.001 1.3-.248 1.783-.739.486-.492.73-1.127.73-1.882 0-.755-.244-1.391-.73-1.883a2.412 2.412 0 00-1.783-.739 2.414 2.414 0 00-1.783.74c-.485.49-.73 1.127-.729 1.882-.001.755.244 1.39.729 1.882l.074-.074.075-.074c-.445-.453-.667-1.023-.668-1.734 0-.711.223-1.282.668-1.735a2.202 2.202 0 011.634-.677 2.2 2.2 0 011.634.677c.445.453.668 1.024.669 1.735-.001.71-.224 1.281-.67 1.734a2.2 2.2 0 01-1.633.677 2.202 2.202 0 01-1.634-.677l-.075.074zm4.014.527l-.075-.072c-.6.616-1.336.921-2.231.922-.896 0-1.63-.306-2.23-.922l-.004-.004.003.004c-.6-.62-.895-1.366-.896-2.263 0-.898.296-1.644.896-2.263.6-.617 1.335-.922 2.23-.923.89 0 1.624.307 2.228.927.602.622.9 1.367.901 2.259-.001.897-.298 1.644-.897 2.263l.075.072.076.073c.635-.653.956-1.464.956-2.408 0-.94-.322-1.748-.96-2.405-.64-.66-1.44-.993-2.378-.991-.944-.002-1.746.33-2.38.987C72.32 9.244 72 10.055 72 11c0 .944.32 1.755.956 2.409l.003.003-.003-.004c.635.657 1.438.988 2.38.987.944.001 1.747-.33 2.383-.986l-.076-.074zm2.061.815v-6.3h.984l3.057 4.9h.035l-.035-1.213V7.85h.808v6.3h-.843l-3.198-5.14h-.035l.035 1.215v3.924h-.808" fill="#000"/><path d="M79.705 14.15h.105V7.955h.82l3.058 4.901h.2l-.038-1.32v-3.58h.6v6.09h-.681l-3.198-5.14h-.2l.037 1.322v3.817h-.703v.105h.105-.105v.105h.913v-4.03l-.035-1.216-.105.003v.105h.035v-.105l-.09.055 3.23 5.188h1.006v-6.51h-1.018v3.793l.035 1.216.105-.003v-.105h-.035v.105l.089-.056-3.088-4.95H79.6v6.51h.105v-.105zM112.581 32h1.956V18.874h-1.956V32zm17.619-8.398l-2.243 5.691h-.067l-2.327-5.69h-2.107l3.49 7.953-1.99 4.425h2.041l5.378-12.379H130.2zm-11.094 6.907c-.641 0-1.534-.32-1.534-1.115 0-1.013 1.113-1.401 2.073-1.401.861 0 1.264.186 1.788.44a2.374 2.374 0 01-2.327 2.076zm.236-7.194c-1.416 0-2.883.625-3.49 2.01l1.736.726c.371-.726 1.062-.963 1.788-.963 1.011 0 2.04.608 2.057 1.69v.134c-.355-.203-1.113-.506-2.04-.506-1.872 0-3.778 1.03-3.778 2.955 0 1.756 1.535 2.888 3.254 2.888 1.316 0 2.04-.591 2.496-1.284h.068v1.013h1.888v-5.032c0-2.33-1.736-3.63-3.979-3.63zM107.253 25.2h-2.782v-4.5h2.782c1.463 0 2.293 1.213 2.293 2.25 0 1.018-.83 2.25-2.293 2.25zm-.05-6.326h-4.687V32h1.955v-4.973h2.732c2.168 0 4.299-1.572 4.299-4.077 0-2.504-2.131-4.076-4.299-4.076zM81.644 30.512c-1.351 0-2.483-1.134-2.483-2.69 0-1.573 1.132-2.723 2.483-2.723 1.334 0 2.381 1.15 2.381 2.723 0 1.556-1.047 2.69-2.38 2.69zm2.246-6.175h-.067c-.44-.524-1.284-.998-2.348-.998-2.23 0-4.273 1.963-4.273 4.483 0 2.504 2.044 4.449 4.273 4.449 1.064 0 1.909-.474 2.348-1.015h.067v.643c0 1.709-.912 2.622-2.381 2.622-1.2 0-1.942-.863-2.246-1.59l-1.706.71c.49 1.184 1.79 2.64 3.952 2.64 2.297 0 4.24-1.354 4.24-4.653V23.61H83.89v.727zM87.1 32h1.96V18.873H87.1V32zm4.847-4.33c-.05-1.726 1.334-2.605 2.33-2.605.778 0 1.436.389 1.656.947l-3.986 1.658zm6.08-1.489c-.371-.998-1.503-2.842-3.817-2.842-2.297 0-4.205 1.81-4.205 4.466 0 2.504 1.891 4.466 4.424 4.466 2.044 0 3.227-1.252 3.716-1.98l-1.52-1.014c-.506.744-1.199 1.235-2.195 1.235-.997 0-1.706-.457-2.162-1.354l5.961-2.47-.202-.507zM50.529 24.71v1.894h4.526c-.135 1.066-.49 1.844-1.03 2.385-.658.66-1.689 1.387-3.496 1.387-2.787 0-4.965-2.25-4.965-5.04 0-2.792 2.178-5.042 4.965-5.042 1.503 0 2.6.593 3.412 1.354l1.334-1.337C54.143 19.23 52.64 18.4 50.529 18.4c-3.817 0-7.026 3.112-7.026 6.935 0 3.823 3.21 6.936 7.026 6.936 2.06 0 3.614-.677 4.83-1.945 1.25-1.252 1.639-3.012 1.639-4.432 0-.44-.034-.846-.102-1.184h-6.367zm11.614 5.802c-1.351 0-2.517-1.117-2.517-2.707 0-1.607 1.166-2.706 2.517-2.706s2.516 1.099 2.516 2.706c0 1.59-1.165 2.707-2.516 2.707zm0-7.173c-2.466 0-4.476 1.878-4.476 4.466 0 2.571 2.01 4.466 4.476 4.466s4.475-1.895 4.475-4.466c0-2.588-2.01-4.466-4.475-4.466zm9.763 7.173c-1.35 0-2.516-1.117-2.516-2.707 0-1.607 1.165-2.706 2.516-2.706s2.517 1.099 2.517 2.706c0 1.59-1.166 2.707-2.517 2.707zm0-7.173c-2.466 0-4.475 1.878-4.475 4.466 0 2.571 2.01 4.466 4.475 4.466 2.466 0 4.476-1.895 4.476-4.466 0-2.588-2.01-4.466-4.476-4.466z" fill="#000"/><path d="M11.495 8.492c-.351.318-.561.848-.561 1.552v-.16 23.228-.153c0 .65.18 1.152.485 1.475l.078.075c.246.223.563.342.926.341.354 0 .753-.113 1.174-.352l15.217-8.66 5.226-2.974c.664-.378 1.037-.865 1.1-1.362V21.5c-.063-.497-.436-.984-1.1-1.362l-5.227-2.974-15.216-8.66c-.421-.24-.82-.353-1.176-.353a1.35 1.35 0 00-.925.34z" fill="#00C1FF"/><path d="M11.497 34.509l-.078-.075c-.305-.323-.485-.825-.485-1.475v.153V9.89v.154c0-.704.21-1.234.561-1.552L24.484 21.5 11.497 34.509z" fill="url(#paint0_linear_1_330)"/><path d="M28.813 25.838l-4.33-4.337 4.33-4.337 5.227 2.974c.664.378 1.037.865 1.099 1.362v.002c-.062.497-.435.984-1.099 1.361l-5.226 2.975" fill="url(#paint1_linear_1_330)"/><path d="M12.423 34.85a1.34 1.34 0 01-.926-.34L24.484 21.5l4.33 4.338-15.217 8.66c-.42.239-.82.352-1.174.352z" fill="url(#paint2_linear_1_330)"/><path d="M24.483 21.501L11.495 8.492c.247-.223.563-.34.926-.34.355 0 .754.113 1.176.352l15.216 8.66-4.33 4.337" fill="url(#paint3_linear_1_330)"/><path d="M12.423 35.004a1.35 1.35 0 01-.927-.341.043.043 0 00-.003-.003l-.068-.066-.007-.007.078-.078c.247.223.564.342.927.341.354 0 .753-.113 1.174-.352l15.216-8.66.098.098-.099.056-15.215 8.66c-.384.217-.749.33-1.078.35a2.042 2.042 0 01-.096.002" fill="url(#paint4_linear_1_330)"/><path d="M11.419 34.587c-.305-.323-.485-.825-.485-1.475v-.153c0 .65.18 1.152.485 1.475l.078.075-.078.078z" fill="url(#paint5_linear_1_330)"/><path d="M28.911 25.936l-.098-.098 5.227-2.974c.664-.378 1.037-.865 1.099-1.362 0 .183-.04.365-.121.542-.163.357-.489.695-.978.973l-5.129 2.92" fill="url(#paint6_linear_1_330)"/><path d="M35.139 21.5c-.062-.497-.435-.984-1.099-1.361l-5.227-2.975.098-.098 5.13 2.92c.731.416 1.098.965 1.098 1.515z" fill="url(#paint7_linear_1_330)"/><path d="M10.934 10.044v-.16c0-.059.001-.115.004-.17v-.012c.032-.56.206-.997.48-1.288l.077.077c-.351.318-.561.848-.561 1.552z" fill="url(#paint8_linear_1_330)"/><path d="M28.813 17.164l-15.216-8.66c-.422-.24-.821-.353-1.176-.353-.363 0-.68.118-.926.34l-.076-.076c.023-.026.048-.05.074-.074l.003-.002c.245-.221.558-.34.917-.341h.008c.355 0 .754.113 1.176.353l15.314 8.715-.098.098z" fill="url(#paint9_linear_1_330)"/></g><defs><linearGradient id="paint0_linear_1_330" x1="19.234" y1="9.645" x2="8.041" y2="20.856" gradientUnits="userSpaceOnUse"><stop stop-color="#00A0FF"/><stop offset=".007" stop-color="#00A1FF"/><stop offset=".26" stop-color="#00BEFF"/><stop offset=".512" stop-color="#00D2FF"/><stop offset=".76" stop-color="#00DFFF"/><stop offset="1" stop-color="#00E3FF"/></linearGradient><linearGradient id="paint1_linear_1_330" x1="35.948" y1="21.426" x2="10.582" y2="21.426" gradientUnits="userSpaceOnUse"><stop stop-color="#FFE000"/><stop offset=".409" stop-color="#FFBD00"/><stop offset=".775" stop-color="orange"/><stop offset="1" stop-color="#FF9C00"/></linearGradient><linearGradient id="paint2_linear_1_330" x1="26.515" y1="25.625" x2="7.547" y2="44.484" gradientUnits="userSpaceOnUse"><stop stop-color="#FF3A44"/><stop offset="1" stop-color="#C31162"/></linearGradient><linearGradient id="paint3_linear_1_330" x1="8.148" y1="6.564" x2="16.601" y2="14.982" gradientUnits="userSpaceOnUse"><stop stop-color="#32A071"/><stop offset=".069" stop-color="#2DA771"/><stop offset=".476" stop-color="#15CF74"/><stop offset=".801" stop-color="#06E775"/><stop offset="1" stop-color="#00F076"/></linearGradient><linearGradient id="paint4_linear_1_330" x1="26.505" y1="28.634" x2="11.315" y2="43.848" gradientUnits="userSpaceOnUse"><stop stop-color="#CC2E36"/><stop offset="1" stop-color="#9C0E4E"/></linearGradient><linearGradient id="paint5_linear_1_330" x1="12.664" y1="9.645" x2="2.803" y2="19.522" gradientUnits="userSpaceOnUse"><stop stop-color="#008DE0"/><stop offset=".007" stop-color="#008DE0"/><stop offset=".26" stop-color="#00A7E0"/><stop offset=".512" stop-color="#00B8E0"/><stop offset=".76" stop-color="#00C4E0"/><stop offset="1" stop-color="#00C7E0"/></linearGradient><linearGradient id="paint6_linear_1_330" x1="35.948" y1="21.501" x2="10.582" y2="21.501" gradientUnits="userSpaceOnUse"><stop stop-color="#E0C500"/><stop offset=".409" stop-color="#E0A600"/><stop offset=".775" stop-color="#E09100"/><stop offset="1" stop-color="#E08900"/></linearGradient><linearGradient id="paint7_linear_1_330" x1="35.948" y1="21.502" x2="10.582" y2="21.502" gradientUnits="userSpaceOnUse"><stop stop-color="#FFE840"/><stop offset=".409" stop-color="#FFCE40"/><stop offset=".775" stop-color="#FFBC40"/><stop offset="1" stop-color="#FFB540"/></linearGradient><linearGradient id="paint8_linear_1_330" x1="12.653" y1="9.663" x2="3.155" y2="18.764" gradientUnits="userSpaceOnUse"><stop stop-color="#40B8FF"/><stop offset=".007" stop-color="#40B9FF"/><stop offset=".26" stop-color="#40CEFF"/><stop offset=".512" stop-color="#40DDFF"/><stop offset=".76" stop-color="#40E7FF"/><stop offset="1" stop-color="#40EAFF"/></linearGradient><linearGradient id="paint9_linear_1_330" x1="8.129" y1="9.314" x2="14.912" y2="16.108" gradientUnits="userSpaceOnUse"><stop stop-color="#65B895"/><stop offset=".069" stop-color="#62BD95"/><stop offset=".476" stop-color="#50DB97"/><stop offset=".801" stop-color="#44ED98"/><stop offset="1" stop-color="#40F498"/></linearGradient><clipPath id="clip0_1_330"><path fill="#fff" d="M0 0h142v43H0z"/></clipPath></defs></svg>