<svg width="36" height="36" fill="none" xmlns="http://www.w3.org/2000/svg"><g clip-path="url(#clip0_1_354)" fill="#fff"><path d="M15.225 16.154a3.334 3.334 0 105.55 3.693 3.334 3.334 0 00-5.55-3.694z"/><path fill-rule="evenodd" clip-rule="evenodd" d="M12.118 25.807c.353.136.882.298 1.857.34 1.055.046 1.37.057 4.04.051 2.67-.006 2.987-.016 4.041-.066.974-.046 1.504-.21 1.856-.348.466-.182.8-.398 1.148-.75a3.1 3.1 0 00.747-1.15c.135-.354.297-.884.34-1.859.046-1.053.055-1.37.05-4.04-.005-2.669-.016-2.985-.066-4.04-.046-.975-.21-1.503-.348-1.855a3.086 3.086 0 00-.75-1.149 3.092 3.092 0 00-1.151-.746c-.353-.136-.883-.297-1.857-.34-1.055-.046-1.372-.056-4.041-.05-2.67.006-2.986.016-4.04.066-.975.046-1.504.21-1.856.347-.467.182-.8.399-1.149.75a3.097 3.097 0 00-.745 1.152c-.136.352-.299.882-.34 1.857-.047 1.054-.057 1.37-.051 4.04.006 2.67.016 2.986.066 4.04.045.975.21 1.503.347 1.856.183.466.399.8.75 1.149a3.12 3.12 0 001.152.745zm10.213-12.485a1.2 1.2 0 111.993-1.337 1.2 1.2 0 01-1.993 1.337zm-4.321 9.812a5.134 5.134 0 11-.02-10.268 5.134 5.134 0 01.02 10.268z"/><path fill-rule="evenodd" clip-rule="evenodd" d="M18 36c9.941 0 18-8.059 18-18S27.941 0 18 0 0 8.059 0 18s8.059 18 18 18zM11.433 8.54c.635-.25 1.361-.42 2.425-.47 1.067-.052 1.407-.064 4.123-.069 2.716-.005 3.058.007 4.123.053 1.064.046 1.791.214 2.428.46a4.88 4.88 0 011.773 1.15c.556.554.9 1.11 1.156 1.768.25.636.42 1.36.47 2.427.05 1.066.063 1.407.068 4.122.005 2.715-.006 3.056-.053 4.123-.046 1.064-.213 1.791-.46 2.427a4.9 4.9 0 01-1.15 1.774c-.553.557-1.11.9-1.768 1.157-.636.248-1.359.418-2.425.469-1.067.05-1.409.063-4.123.068-2.715.005-3.058-.006-4.122-.052-1.065-.047-1.792-.215-2.428-.46a4.893 4.893 0 01-1.774-1.15 4.899 4.899 0 01-1.156-1.77c-.25-.635-.42-1.361-.47-2.425-.052-1.067-.064-1.407-.069-4.123-.005-2.715.005-3.058.052-4.122.047-1.065.214-1.792.46-2.429a4.898 4.898 0 011.15-1.772 4.894 4.894 0 011.77-1.156z"/></g><defs><clipPath id="clip0_1_354"><path fill="#fff" d="M0 0h36v36H0z"/></clipPath></defs></svg>