<svg width="127" height="43" fill="none" xmlns="http://www.w3.org/2000/svg"><g clip-path="url(#clip0_1_303)"><path d="M116.474.5H10.844c-.386 0-.766 0-1.15.002-.321.002-.64.008-.965.014-.705.008-1.408.07-2.104.185a6.998 6.998 0 00-1.996.658 6.76 6.76 0 00-3.593 4.939C.92 6.992.856 7.695.848 8.4c-.01.322-.01.645-.016.967v24.27c.005.326.006.642.016.968.008.704.071 1.407.188 2.102.116.696.337 1.37.656 2 .318.627.736 1.2 1.237 1.694.497.501 1.07.919 1.7 1.238.628.32 1.301.543 1.996.662.696.114 1.4.176 2.104.186.325.007.644.011.965.011.384.002.764.002 1.15.002h105.63c.377 0 .76 0 1.138-.002.32 0 .648-.004.968-.011a13.958 13.958 0 002.1-.186 7.135 7.135 0 002.003-.662 6.58 6.58 0 001.698-1.238c.5-.496.919-1.068 1.241-1.695.317-.63.536-1.304.65-2 .117-.694.182-1.397.195-2.101.004-.326.004-.642.004-.968.008-.382.008-.761.008-1.149V10.513c0-.384 0-.766-.008-1.146 0-.322 0-.645-.004-.967a14.243 14.243 0 00-.195-2.102 6.937 6.937 0 00-.65-1.999 6.788 6.788 0 00-2.939-2.94 7.097 7.097 0 00-2.003-.658 13.702 13.702 0 00-2.1-.186c-.32-.005-.648-.01-.968-.013C117.234.5 116.851.5 116.474.5z" fill="#000"/><path d="M9.7 41.581c-.32 0-.633-.004-.95-.01a13.332 13.332 0 01-1.963-.172 6.182 6.182 0 01-1.74-.575 5.676 5.676 0 01-1.466-1.068 5.585 5.585 0 01-1.072-1.466 6.008 6.008 0 01-.57-1.74 13.033 13.033 0 01-.175-1.969c-.006-.221-.015-.959-.015-.959V9.367s.01-.726.015-.94a12.99 12.99 0 01.174-1.965c.1-.608.293-1.196.57-1.745a5.844 5.844 0 012.538-2.541 6.114 6.114 0 011.737-.572c.651-.106 1.31-.164 1.97-.172l.947-.013h107.907l.959.013c.653.008 1.306.065 1.951.171.61.104 1.201.297 1.754.575a5.87 5.87 0 012.536 2.541 6.05 6.05 0 01.562 1.732 13.7 13.7 0 01.183 1.981c.003.297.003.617.003.935.008.393.008.768.008 1.146v21.975c0 .382 0 .754-.008 1.13 0 .34 0 .654-.004.975a13.506 13.506 0 01-.18 1.947 6.02 6.02 0 01-.567 1.753 5.753 5.753 0 01-1.066 1.455 5.677 5.677 0 01-1.47 1.074 6.152 6.152 0 01-1.751.577 13.17 13.17 0 01-1.963.171c-.307.007-.629.011-.942.011l-1.138.002-106.775-.002z" fill="#fff"/><path d="M27.079 21.384a5.404 5.404 0 012.573-4.534 5.531 5.531 0 00-4.358-2.356c-1.833-.192-3.611 1.097-4.545 1.097-.953 0-2.391-1.078-3.94-1.046a5.803 5.803 0 00-4.884 2.979c-2.112 3.656-.537 9.03 1.486 11.984 1.012 1.448 2.195 3.064 3.743 3.007 1.514-.063 2.08-.966 3.908-.966 1.811 0 2.342.966 3.92.93 1.626-.027 2.65-1.454 3.627-2.915a11.972 11.972 0 001.657-3.377 5.222 5.222 0 01-3.187-4.803zm-2.982-8.834a5.32 5.32 0 001.217-3.81 5.413 5.413 0 00-3.503 1.811 5.063 5.063 0 00-1.249 3.67 4.476 4.476 0 003.535-1.67zM45.25 28.997h-4.97l-1.194 3.524H36.98l4.707-13.04h2.187l4.708 13.04h-2.141l-1.193-3.524zm-4.456-1.627h3.94l-1.943-5.72h-.054l-1.943 5.72zm17.956.398c0 2.955-1.581 4.853-3.968 4.853a3.223 3.223 0 01-2.99-1.664h-.046v4.71h-1.951V23.014h1.889v1.58h.036a3.373 3.373 0 013.026-1.68c2.413 0 4.004 1.908 4.004 4.854zm-2.006 0c0-1.924-.995-3.19-2.512-3.19-1.491 0-2.494 1.293-2.494 3.19 0 1.916 1.003 3.199 2.494 3.199 1.517 0 2.512-1.256 2.512-3.198zm12.469 0c0 2.955-1.582 4.853-3.968 4.853a3.223 3.223 0 01-2.99-1.664h-.046v4.71h-1.951V23.014h1.889v1.58h.035a3.373 3.373 0 013.027-1.68c2.413 0 4.004 1.908 4.004 4.854zm-2.006 0c0-1.924-.995-3.19-2.512-3.19-1.491 0-2.494 1.293-2.494 3.19 0 1.916 1.003 3.199 2.494 3.199 1.517 0 2.512-1.256 2.512-3.198zm8.92 1.12c.145 1.293 1.401 2.142 3.118 2.142 1.644 0 2.828-.849 2.828-2.015 0-1.012-.714-1.618-2.404-2.033l-1.69-.407c-2.394-.579-3.506-1.698-3.506-3.515 0-2.25 1.961-3.795 4.744-3.795 2.756 0 4.645 1.545 4.709 3.795h-1.97c-.118-1.302-1.194-2.087-2.766-2.087s-2.647.795-2.647 1.951c0 .922.687 1.465 2.367 1.88l1.437.353c2.675.632 3.786 1.707 3.786 3.614 0 2.44-1.942 3.967-5.033 3.967-2.892 0-4.844-1.492-4.97-3.85h1.997zm12.219-8.123v2.25h1.807v1.545h-1.807v5.24c0 .815.362 1.194 1.156 1.194.215-.004.43-.019.642-.045v1.536a5.36 5.36 0 01-1.084.09c-1.924 0-2.675-.723-2.675-2.567V24.56h-1.382v-1.546h1.382v-2.25h1.96zm2.854 7.003c0-2.991 1.76-4.87 4.508-4.87 2.756 0 4.51 1.879 4.51 4.87 0 3-1.745 4.87-4.51 4.87-2.765 0-4.509-1.87-4.509-4.87zm7.03 0c0-2.052-.941-3.263-2.522-3.263s-2.522 1.22-2.522 3.263c0 2.06.94 3.262 2.522 3.262 1.581 0 2.521-1.202 2.521-3.262zm3.597-4.753h1.861v1.618h.045a2.266 2.266 0 012.287-1.718c.225 0 .449.024.669.073v1.825a2.732 2.732 0 00-.877-.118 1.97 1.97 0 00-1.948 1.35c-.088.27-.118.556-.086.837v5.64h-1.951v-9.507zm13.858 6.714c-.263 1.725-1.943 2.91-4.094 2.91-2.765 0-4.482-1.853-4.482-4.826 0-2.982 1.726-4.915 4.4-4.915 2.63 0 4.284 1.806 4.284 4.689v.668h-6.714v.118a2.471 2.471 0 00.671 1.924 2.472 2.472 0 001.886.769 2.152 2.152 0 002.196-1.337h1.853zm-6.597-2.838h4.753a2.277 2.277 0 00-.639-1.715 2.288 2.288 0 00-1.693-.697 2.407 2.407 0 00-2.421 2.412zM40.55 9.668a2.772 2.772 0 012.947 3.113c0 2.001-1.082 3.152-2.948 3.152h-2.263V9.668h2.263zm-1.29 5.379h1.18a1.97 1.97 0 002.067-2.253 1.974 1.974 0 00-2.066-2.24h-1.182v4.493zm5.336-1.481a2.241 2.241 0 114.46 0 2.24 2.24 0 11-4.46 0zm3.5 0c0-1.024-.46-1.624-1.268-1.624-.811 0-1.268.6-1.268 1.624 0 1.034.457 1.628 1.268 1.628.808 0 1.268-.599 1.268-1.628zm6.888 2.367h-.968l-.978-3.483h-.073l-.974 3.483h-.958l-1.303-4.728h.946l.847 3.607h.07l.972-3.607h.895l.972 3.607h.074l.843-3.607h.933l-1.298 4.728zm2.394-4.728h.898v.75h.07a1.415 1.415 0 011.41-.841 1.538 1.538 0 011.637 1.758v3.06h-.933v-2.826c0-.76-.33-1.137-1.02-1.137a1.083 1.083 0 00-1.129 1.198v2.766h-.933v-4.728zm5.502-1.846h.933v6.574h-.933V9.359zm2.23 4.208a2.24 2.24 0 114.46 0 2.241 2.241 0 11-4.46 0zm3.5 0c0-1.025-.46-1.625-1.269-1.625-.81 0-1.267.6-1.267 1.625 0 1.033.456 1.627 1.267 1.627.808 0 1.269-.599 1.269-1.627zm1.943 1.028c0-.85.633-1.341 1.758-1.411l1.281-.074v-.408c0-.5-.33-.781-.968-.781-.52 0-.882.191-.985.525h-.904c.096-.812.86-1.333 1.932-1.333 1.186 0 1.854.59 1.854 1.59v3.23h-.898v-.665h-.074a1.59 1.59 0 01-1.42.742 1.426 1.426 0 01-1.576-1.415zm3.039-.404v-.395l-1.155.074c-.65.044-.946.265-.946.682 0 .425.37.673.877.673a1.116 1.116 0 001.224-1.034zm2.155-.624c0-1.494.768-2.44 1.963-2.44a1.557 1.557 0 011.45.829h.07V9.359h.932v6.574h-.894v-.747h-.074a1.64 1.64 0 01-1.484.825c-1.203 0-1.963-.947-1.963-2.444zm.964 0c0 1.002.473 1.606 1.263 1.606.787 0 1.273-.612 1.273-1.602 0-.986-.491-1.607-1.273-1.607-.785 0-1.263.608-1.263 1.603zm7.312-.001a2.241 2.241 0 114.46 0 2.241 2.241 0 11-4.46 0zm3.5 0c0-1.024-.46-1.624-1.269-1.624-.81 0-1.267.6-1.267 1.624 0 1.034.456 1.628 1.267 1.628.808 0 1.269-.599 1.269-1.628zm2.211-2.361h.899v.75h.07a1.414 1.414 0 011.41-.841 1.538 1.538 0 011.637 1.758v3.06h-.933v-2.826c0-.76-.33-1.137-1.02-1.137a1.083 1.083 0 00-1.13 1.198v2.766h-.933v-4.728zm9.289-1.178v1.199h1.024v.786h-1.024v2.431c0 .495.204.712.668.712.12 0 .238-.007.356-.021v.777c-.168.03-.337.046-.508.048-1.037 0-1.45-.365-1.45-1.277v-2.67h-.751v-.786h.75v-1.199h.935zm2.298-.668h.925v2.605h.074a1.455 1.455 0 011.442-.847 1.56 1.56 0 011.569 1.086c.07.219.09.45.059.677v3.053h-.934V13.11c0-.755-.352-1.137-1.011-1.137a1.106 1.106 0 00-1.191 1.198v2.762h-.933V9.359zm9.51 5.297a1.918 1.918 0 01-2.049 1.368 2.147 2.147 0 01-2.184-2.44 2.185 2.185 0 011.273-2.282c.286-.127.595-.191.907-.189 1.316 0 2.109.9 2.109 2.384v.325h-3.338v.053a1.24 1.24 0 00.33.956 1.242 1.242 0 00.929.398 1.136 1.136 0 001.125-.573h.898zm-3.282-1.524h2.388a1.146 1.146 0 00-.311-.87 1.135 1.135 0 00-.853-.354 1.213 1.213 0 00-1.135.753 1.21 1.21 0 00-.089.471z" fill="#000"/></g><defs><clipPath id="clip0_1_303"><path fill="#fff" d="M0 0h127v43H0z"/></clipPath></defs></svg>