<svg width="451" height="338" fill="none" xmlns="http://www.w3.org/2000/svg"><g clip-path="url(#clip0_1_84)"><path d="M444.987.563H6.013A5.448 5.448 0 00.563 6.01v325.98a5.448 5.448 0 005.45 5.446h438.974a5.448 5.448 0 005.449-5.446V6.009a5.448 5.448 0 00-5.449-5.446z" fill="#fff"/><path d="M18.789 52.578v-6.715h4.374v.811h-3.49v2.127h3.31v.811h-3.31v2.154h3.49v.812H18.79zm5.325 0v-4.859h.821v.947l-.135-.081c.12-.307.313-.544.577-.712a1.71 1.71 0 01.947-.262c.35 0 .659.079.93.235.276.156.492.372.649.649.162.276.243.589.243.937v3.146h-.848v-2.876c0-.27-.048-.498-.144-.684a1.03 1.03 0 00-.415-.433 1.124 1.124 0 00-.604-.162 1.17 1.17 0 00-.613.162c-.175.102-.313.25-.415.441a1.386 1.386 0 00-.154.676v2.876h-.838zm7.506 1.983a2.73 2.73 0 01-.956-.163 2.285 2.285 0 01-.749-.45 1.887 1.887 0 01-.469-.658l.785-.36c.084.228.243.42.478.576.24.162.541.243.902.243.276 0 .526-.054.748-.162.229-.102.41-.258.542-.469.132-.204.198-.453.198-.748v-1.09l.153.162c-.168.33-.412.583-.73.757a2.095 2.095 0 01-1.037.262 2.39 2.39 0 01-1.227-.316 2.322 2.322 0 01-.848-.874 2.525 2.525 0 01-.307-1.235c0-.457.102-.868.307-1.235.204-.366.484-.655.839-.865.36-.217.77-.325 1.227-.325.378 0 .721.088 1.028.262.313.168.562.402.748.703l-.126.225V47.72h.821v4.651c0 .421-.1.797-.298 1.127-.198.33-.475.589-.83.775a2.444 2.444 0 01-1.2.289zm-.063-2.912c.288 0 .547-.072.775-.216.235-.144.421-.337.56-.577.138-.246.207-.52.207-.82a1.629 1.629 0 00-.767-1.397 1.423 1.423 0 00-.775-.216c-.295 0-.563.072-.803.216-.24.144-.43.34-.568.586-.133.24-.199.51-.199.811 0 .3.066.574.199.82.138.24.324.433.559.577.24.144.511.216.812.216zm3.645.929v-4.859h.84v4.859h-.84zm0-5.634v-1.081h.84v1.081h-.84zm2.096 5.634v-4.859h.82v.947l-.135-.081c.12-.307.313-.544.578-.712a1.71 1.71 0 01.947-.262c.348 0 .658.079.929.235.276.156.493.372.65.649.161.276.243.589.243.937v3.146h-.848v-2.876c0-.27-.048-.498-.145-.684a1.03 1.03 0 00-.415-.433 1.123 1.123 0 00-.604-.162 1.17 1.17 0 00-.613.162c-.175.102-.313.25-.415.441a1.386 1.386 0 00-.154.676v2.876h-.838zm7.424.108a2.37 2.37 0 01-1.254-.334 2.38 2.38 0 01-.866-.91 2.71 2.71 0 01-.316-1.307c0-.487.103-.92.307-1.298a2.37 2.37 0 01.848-.892 2.26 2.26 0 011.209-.334c.36 0 .68.067.956.199.282.126.52.3.712.523.199.216.35.465.451.748.109.276.163.564.163.865 0 .066-.006.141-.018.225a2.573 2.573 0 01-.027.226H42.9v-.722h3.5l-.397.325a1.388 1.388 0 00-.09-.838 1.369 1.369 0 00-1.263-.803c-.283 0-.541.073-.776.217a1.464 1.464 0 00-.55.622c-.127.264-.178.58-.154.946-.024.355.03.667.163.938.138.264.33.471.577.621.253.145.526.217.82.217.326 0 .6-.075.822-.226.222-.15.403-.342.54-.576l.705.36a1.797 1.797 0 01-.451.613c-.199.18-.436.325-.713.433-.27.108-.574.162-.911.162zm5.495 0a2.36 2.36 0 01-1.253-.334 2.38 2.38 0 01-.866-.91 2.71 2.71 0 01-.316-1.307c0-.487.102-.92.307-1.298a2.37 2.37 0 01.848-.892c.36-.222.763-.334 1.208-.334.361 0 .68.067.956.199.283.126.52.3.713.523.198.216.349.465.45.748.11.276.163.564.163.865 0 .066-.006.141-.018.225a2.573 2.573 0 01-.027.226h-3.987v-.722h3.5l-.397.325a1.389 1.389 0 00-.09-.838 1.37 1.37 0 00-1.263-.803c-.283 0-.541.073-.776.217a1.464 1.464 0 00-.55.622c-.126.264-.177.58-.153.946-.024.355.03.667.162.938.139.264.331.471.578.621.252.145.526.217.82.217.325 0 .599-.075.821-.226.223-.15.403-.342.541-.576l.704.36a1.796 1.796 0 01-.451.613c-.199.18-.436.325-.713.433-.27.108-.574.162-.91.162zm3.259-.108v-4.859h.82v.893l-.09-.126c.115-.277.289-.481.524-.613.234-.138.52-.207.857-.207h.297v.793h-.424c-.343 0-.62.108-.83.324-.21.21-.315.51-.315.901v2.894h-.84zm3.108 0v-4.859h.84v4.859h-.84zm0-5.634v-1.081h.84v1.081h-.84zm2.096 5.634v-4.859h.82v.947l-.135-.081c.12-.307.313-.544.577-.712a1.71 1.71 0 01.947-.262c.35 0 .659.079.93.235.276.156.493.372.649.649.162.276.243.589.243.937v3.146h-.847v-2.876c0-.27-.048-.498-.145-.684a1.03 1.03 0 00-.415-.433 1.123 1.123 0 00-.604-.162 1.17 1.17 0 00-.613.162c-.175.102-.313.25-.415.441a1.387 1.387 0 00-.154.676v2.876h-.838zm7.505 1.983a2.73 2.73 0 01-.956-.163 2.285 2.285 0 01-.749-.45 1.886 1.886 0 01-.469-.658l.785-.36c.084.228.243.42.478.576.24.162.541.243.902.243.277 0 .526-.054.749-.162.228-.102.409-.258.54-.469.133-.204.2-.453.2-.748v-1.09l.153.162c-.169.33-.412.583-.731.757a2.095 2.095 0 01-1.037.262c-.457 0-.866-.106-1.227-.316a2.321 2.321 0 01-.848-.874 2.524 2.524 0 01-.307-1.235c0-.457.103-.868.307-1.235.205-.366.484-.655.839-.865.36-.217.77-.325 1.227-.325.379 0 .721.088 1.028.262.313.168.562.402.749.703l-.127.225V47.72h.821v4.651c0 .421-.1.797-.297 1.127-.199.33-.476.589-.83.775a2.443 2.443 0 01-1.2.289zm-.063-2.912c.288 0 .547-.072.776-.216.234-.144.42-.337.559-.577.138-.246.207-.52.207-.82a1.629 1.629 0 00-.766-1.397 1.423 1.423 0 00-.776-.216c-.295 0-.562.072-.803.216-.24.144-.43.34-.568.586-.133.24-.199.51-.199.811 0 .3.066.574.199.82.138.24.325.433.559.577.24.144.511.216.812.216zm5.223-1.117v-.766h3.969v.766h-3.97zm6.887 2.046v-6.715h.884v6.715h-.884zm5.427.108c-.475 0-.914-.084-1.317-.252a3.253 3.253 0 01-1.046-.73 3.335 3.335 0 01-.686-1.1 3.797 3.797 0 01-.243-1.38c0-.504.08-.967.243-1.387.163-.42.391-.787.686-1.1a3.023 3.023 0 011.046-.721 3.283 3.283 0 011.317-.261 3.036 3.036 0 012.183.873c.258.26.442.536.55.83l-.812.37a2.025 2.025 0 00-.73-.902c-.331-.234-.728-.351-1.191-.351-.47 0-.887.111-1.254.333-.36.223-.643.532-.848.929-.204.396-.306.859-.306 1.388 0 .523.102.982.306 1.379.205.396.487.706.848.928a2.37 2.37 0 001.254.334c.463 0 .86-.114 1.19-.343a2.08 2.08 0 00.731-.91l.812.37c-.108.294-.292.57-.55.829a2.924 2.924 0 01-.938.63 3.046 3.046 0 01-1.245.244zm5.106-.108v-.766h1.804v-5.183h-1.271v-.766h2.173v5.949h1.804v.766h-4.51zM18.789 96.142v-6.715h4.374v.811h-3.49v2.128h3.31v.81h-3.31v2.155h3.49v.811H18.79zm5.325 0v-4.858h.821v.946l-.135-.08c.12-.307.313-.544.577-.713.27-.174.587-.261.947-.261.35 0 .659.078.93.234.276.156.492.373.649.65.162.276.243.588.243.936v3.146h-.848v-2.875c0-.27-.048-.499-.144-.685a1.028 1.028 0 00-.415-.433 1.123 1.123 0 00-.604-.162c-.229 0-.433.054-.613.162-.175.102-.313.25-.415.442a1.386 1.386 0 00-.154.676v2.875h-.838zm7.506 1.983c-.343 0-.662-.054-.956-.162a2.286 2.286 0 01-.749-.45 1.887 1.887 0 01-.469-.659l.785-.36c.084.228.243.42.478.577.24.162.541.243.902.243.276 0 .526-.054.748-.162.229-.103.41-.259.542-.469a1.35 1.35 0 00.198-.748v-1.09l.153.162a1.75 1.75 0 01-.73.757 2.094 2.094 0 01-1.037.261 2.39 2.39 0 01-1.227-.316 2.321 2.321 0 01-.848-.874 2.525 2.525 0 01-.307-1.235c0-.456.102-.868.307-1.234.204-.367.484-.655.839-.866a2.34 2.34 0 011.227-.324c.378 0 .721.087 1.028.261.313.169.562.403.748.703l-.126.226v-1.082h.821v4.65c0 .422-.1.797-.298 1.127-.198.331-.475.59-.83.776a2.444 2.444 0 01-1.2.288zm-.063-2.911c.288 0 .547-.072.775-.216.235-.145.421-.337.56-.577.138-.247.207-.52.207-.82a1.63 1.63 0 00-.767-1.398 1.422 1.422 0 00-.775-.216 1.53 1.53 0 00-.803.216 1.574 1.574 0 00-.767 1.397c0 .3.066.574.199.82.138.241.324.433.559.578.24.144.511.216.812.216zm3.645.928v-4.858h.84v4.858h-.84zm0-5.633v-1.082h.84v1.082h-.84zm2.096 5.633v-4.858h.82v.946l-.135-.08c.12-.307.313-.544.578-.713a1.71 1.71 0 01.947-.261c.348 0 .658.078.929.234.276.156.493.373.65.65.161.276.243.588.243.936v3.146h-.848v-2.875c0-.27-.048-.499-.145-.685a1.028 1.028 0 00-.415-.433 1.122 1.122 0 00-.604-.162 1.17 1.17 0 00-.613.162c-.175.102-.313.25-.415.442a1.386 1.386 0 00-.154.676v2.875h-.838zm7.424.108a2.37 2.37 0 01-1.254-.333 2.38 2.38 0 01-.866-.91 2.71 2.71 0 01-.316-1.307c0-.487.103-.92.307-1.298.21-.379.493-.676.848-.893a2.26 2.26 0 011.209-.333c.36 0 .68.066.956.198.282.126.52.3.712.523.199.216.35.466.451.748.109.276.163.565.163.865a1.6 1.6 0 01-.018.226 2.576 2.576 0 01-.027.225H42.9v-.721h3.5l-.397.324a1.388 1.388 0 00-.09-.838 1.369 1.369 0 00-1.263-.802c-.283 0-.541.072-.776.216a1.464 1.464 0 00-.55.622c-.127.265-.178.58-.154.947-.024.354.03.667.163.937.138.264.33.472.577.622.253.144.526.216.82.216.326 0 .6-.075.822-.225.222-.15.403-.343.54-.577l.705.36a1.797 1.797 0 01-.451.614c-.199.18-.436.324-.713.432-.27.108-.574.162-.911.162zm5.495 0a2.37 2.37 0 01-1.253-.333 2.38 2.38 0 01-.866-.91 2.711 2.711 0 01-.316-1.307c0-.487.102-.92.307-1.298.21-.379.493-.676.848-.893.36-.222.763-.333 1.208-.333.361 0 .68.066.956.198.283.126.52.3.713.523.198.216.349.466.45.748.11.276.163.565.163.865 0 .066-.006.141-.018.226a2.537 2.537 0 01-.027.225h-3.987v-.721h3.5l-.397.324a1.389 1.389 0 00-.09-.838 1.37 1.37 0 00-1.263-.802c-.283 0-.541.072-.776.216a1.464 1.464 0 00-.55.622c-.126.265-.177.58-.153.947-.024.354.03.667.162.937.139.264.331.472.578.622.252.144.526.216.82.216.325 0 .599-.075.821-.225.223-.15.403-.343.541-.577l.704.36a1.796 1.796 0 01-.451.614c-.199.18-.436.324-.713.432-.27.108-.574.162-.91.162zm3.259-.108v-4.858h.82v.892l-.09-.126c.115-.276.29-.48.524-.613.234-.138.52-.207.857-.207h.297v.793h-.424c-.343 0-.62.108-.83.325-.21.21-.315.51-.315.9v2.894h-.84zm3.108 0v-4.858h.84v4.858h-.84zm0-5.633v-1.082h.84v1.082h-.84zm2.096 5.633v-4.858h.82v.946l-.135-.08c.12-.307.313-.544.577-.713.271-.174.587-.261.947-.261.35 0 .659.078.93.234.276.156.493.373.649.65.162.276.243.588.243.936v3.146h-.847v-2.875c0-.27-.048-.499-.145-.685a1.028 1.028 0 00-.415-.433 1.122 1.122 0 00-.604-.162 1.17 1.17 0 00-.613.162c-.175.102-.313.25-.415.442a1.387 1.387 0 00-.154.676v2.875h-.838zm7.505 1.983c-.343 0-.662-.054-.956-.162a2.285 2.285 0 01-.749-.45 1.886 1.886 0 01-.469-.659l.785-.36c.084.228.243.42.478.577.24.162.541.243.902.243.277 0 .526-.054.749-.162.228-.103.409-.259.54-.469.133-.204.2-.454.2-.748v-1.09l.153.162c-.169.33-.412.582-.731.757a2.094 2.094 0 01-1.037.261 2.39 2.39 0 01-1.227-.316 2.32 2.32 0 01-.848-.874 2.524 2.524 0 01-.307-1.235c0-.456.103-.868.307-1.234.205-.367.484-.655.839-.866a2.34 2.34 0 011.227-.324c.379 0 .721.087 1.028.261.313.169.562.403.749.703l-.127.226v-1.082h.821v4.65c0 .422-.1.797-.297 1.127-.199.331-.476.59-.83.776a2.443 2.443 0 01-1.2.288zm-.063-2.911c.288 0 .547-.072.776-.216.234-.145.42-.337.559-.577.138-.247.207-.52.207-.82a1.63 1.63 0 00-.766-1.398 1.422 1.422 0 00-.776-.216 1.53 1.53 0 00-.803.216 1.574 1.574 0 00-.767 1.397c0 .3.066.574.199.82.138.241.325.433.559.578.24.144.511.216.812.216zm5.223-1.118v-.766h3.969v.766h-3.97zm6.887 2.046v-6.715h.884v6.715h-.884zm5.427.108c-.475 0-.914-.084-1.317-.252a3.254 3.254 0 01-1.046-.73 3.336 3.336 0 01-.686-1.1 3.8 3.8 0 01-.243-1.379c0-.505.08-.967.243-1.388.163-.42.391-.787.686-1.1a3.022 3.022 0 011.046-.72 3.28 3.28 0 011.317-.262c.463 0 .878.081 1.245.243.373.163.685.373.938.631.258.259.442.535.55.83l-.812.37a2.025 2.025 0 00-.73-.902c-.331-.234-.728-.352-1.191-.352-.47 0-.887.112-1.254.334-.36.222-.643.532-.848.928-.204.397-.306.86-.306 1.388 0 .523.102.983.306 1.38.205.396.487.705.848.928a2.37 2.37 0 001.254.333c.463 0 .86-.114 1.19-.342.331-.235.575-.538.731-.91l.812.369c-.108.294-.292.57-.55.83a2.926 2.926 0 01-.938.63 3.047 3.047 0 01-1.245.243zm5.197-.108v-.613l1.813-2.01c.36-.402.646-.73.856-.982.217-.253.37-.475.46-.667.097-.198.145-.406.145-.622 0-.367-.105-.649-.316-.847-.204-.199-.478-.298-.82-.298-.343 0-.641.105-.894.316-.246.204-.414.496-.505.874l-.793-.207a2.32 2.32 0 01.423-.938c.205-.264.458-.468.758-.613.307-.144.64-.216 1.001-.216.403 0 .758.081 1.065.243.306.157.544.376.712.658.175.283.262.61.262.983 0 .252-.051.499-.153.739-.097.234-.244.48-.443.74-.192.257-.435.555-.73.891l-1.624 1.803h3.094v.766h-4.311zm-70.067 43.565v-6.715h4.374v.811h-3.49v2.127h3.31v.811h-3.31v2.154h3.49v.812H18.79zm5.325 0v-4.859h.821v.947l-.135-.081a1.44 1.44 0 01.577-.712c.27-.175.587-.262.947-.262.35 0 .659.078.93.235.276.156.492.372.649.649.162.276.243.588.243.937v3.146h-.848v-2.876c0-.27-.048-.498-.144-.685a1.028 1.028 0 00-.415-.432 1.125 1.125 0 00-.604-.163c-.229 0-.433.055-.613.163a1.09 1.09 0 00-.415.441 1.389 1.389 0 00-.154.676v2.876h-.838zm7.506 1.983c-.343 0-.662-.055-.956-.163a2.286 2.286 0 01-.749-.45 1.897 1.897 0 01-.469-.658l.785-.361c.084.228.243.421.478.577.24.162.541.243.902.243.276 0 .526-.054.748-.162.229-.102.41-.258.542-.469.132-.204.198-.453.198-.748v-1.09l.153.162c-.168.33-.412.583-.73.757a2.097 2.097 0 01-1.037.261c-.457 0-.866-.105-1.227-.315a2.322 2.322 0 01-.848-.874 2.526 2.526 0 01-.307-1.235c0-.457.102-.868.307-1.235.204-.366.484-.655.839-.865.36-.217.77-.325 1.227-.325.378 0 .721.087 1.028.262.313.168.562.402.748.703l-.126.225v-1.082h.821v4.651c0 .421-.1.797-.298 1.127-.198.33-.475.589-.83.775a2.447 2.447 0 01-1.2.289zm-.063-2.912c.288 0 .547-.072.775-.216a1.61 1.61 0 00.56-.577c.138-.246.207-.52.207-.82a1.626 1.626 0 00-.767-1.397 1.425 1.425 0 00-.775-.217 1.558 1.558 0 00-1.371.803 1.65 1.65 0 00-.199.811c0 .3.066.574.199.82.138.24.324.433.559.577.24.144.511.216.812.216zm3.645.929v-4.859h.84v4.859h-.84zm0-5.634v-1.081h.84v1.081h-.84zm2.096 5.634v-4.859h.82v.947l-.135-.081a1.44 1.44 0 01.578-.712c.27-.175.586-.262.947-.262.348 0 .658.078.929.235.276.156.493.372.65.649.161.276.243.588.243.937v3.146h-.848v-2.876c0-.27-.048-.498-.145-.685a1.028 1.028 0 00-.415-.432 1.125 1.125 0 00-.604-.163 1.17 1.17 0 00-.613.163 1.09 1.09 0 00-.415.441 1.389 1.389 0 00-.154.676v2.876h-.838zm7.424.108c-.47 0-.887-.111-1.254-.334a2.374 2.374 0 01-.866-.91 2.71 2.71 0 01-.316-1.307c0-.487.103-.919.307-1.298a2.37 2.37 0 01.848-.892c.36-.223.764-.334 1.209-.334.36 0 .68.066.956.199.282.126.52.3.712.522.199.217.35.466.451.748.109.277.163.565.163.866 0 .066-.006.141-.018.225a2.566 2.566 0 01-.027.225H42.9v-.721h3.5l-.397.325a1.387 1.387 0 00-.09-.838 1.364 1.364 0 00-1.263-.803c-.283 0-.541.073-.776.217a1.46 1.46 0 00-.55.622c-.127.264-.178.579-.154.946-.024.355.03.667.163.937.138.265.33.472.577.622.253.145.526.217.82.217.326 0 .6-.075.822-.226.222-.15.403-.342.54-.577l.705.361a1.798 1.798 0 01-.451.613 2.31 2.31 0 01-.713.433 2.44 2.44 0 01-.911.162zm5.495 0a2.36 2.36 0 01-1.253-.334 2.374 2.374 0 01-.866-.91 2.712 2.712 0 01-.316-1.307c0-.487.102-.919.307-1.298a2.37 2.37 0 01.848-.892c.36-.223.763-.334 1.208-.334.361 0 .68.066.956.199.283.126.52.3.713.522a2.2 2.2 0 01.45.748c.11.277.163.565.163.866 0 .066-.006.141-.018.225a2.565 2.565 0 01-.027.225h-3.987v-.721h3.5l-.397.325a1.387 1.387 0 00-.09-.838 1.365 1.365 0 00-1.263-.803c-.283 0-.541.073-.776.217a1.46 1.46 0 00-.55.622c-.126.264-.177.579-.153.946-.024.355.03.667.162.937.139.265.331.472.578.622.252.145.526.217.82.217.325 0 .599-.075.821-.226.223-.15.403-.342.541-.577l.704.361a1.796 1.796 0 01-.451.613 2.31 2.31 0 01-.713.433c-.27.108-.574.162-.91.162zm3.259-.108v-4.859h.82v.893l-.09-.126a1.2 1.2 0 01.524-.613c.234-.139.52-.208.857-.208h.297v.794h-.424c-.343 0-.62.108-.83.324-.21.21-.315.511-.315.901v2.894h-.84zm3.108 0v-4.859h.84v4.859h-.84zm0-5.634v-1.081h.84v1.081h-.84zm2.096 5.634v-4.859h.82v.947l-.135-.081a1.44 1.44 0 01.577-.712c.271-.175.587-.262.947-.262.35 0 .659.078.93.235.276.156.493.372.649.649.162.276.243.588.243.937v3.146h-.847v-2.876c0-.27-.048-.498-.145-.685a1.028 1.028 0 00-.415-.432 1.125 1.125 0 00-.604-.163 1.17 1.17 0 00-.613.163 1.09 1.09 0 00-.415.441 1.39 1.39 0 00-.154.676v2.876h-.838zm7.505 1.983c-.343 0-.662-.055-.956-.163a2.285 2.285 0 01-.749-.45 1.896 1.896 0 01-.469-.658l.785-.361c.084.228.243.421.478.577.24.162.541.243.902.243.277 0 .526-.054.749-.162.228-.102.409-.258.54-.469.133-.204.2-.453.2-.748v-1.09l.153.162c-.169.33-.412.583-.731.757a2.097 2.097 0 01-1.037.261c-.457 0-.866-.105-1.227-.315a2.322 2.322 0 01-.848-.874 2.524 2.524 0 01-.307-1.235c0-.457.103-.868.307-1.235.205-.366.484-.655.839-.865.36-.217.77-.325 1.227-.325.379 0 .721.087 1.028.262.313.168.562.402.749.703l-.127.225v-1.082h.821v4.651c0 .421-.1.797-.297 1.127-.199.33-.476.589-.83.775a2.447 2.447 0 01-1.2.289zm-.063-2.912c.288 0 .547-.072.776-.216a1.61 1.61 0 00.559-.577c.138-.246.207-.52.207-.82a1.626 1.626 0 00-.766-1.397 1.425 1.425 0 00-.776-.217 1.558 1.558 0 00-1.371.803 1.65 1.65 0 00-.199.811c0 .3.066.574.199.82.138.24.325.433.559.577.24.144.511.216.812.216zm5.223-1.117v-.767h3.969v.767h-3.97zm6.887 2.046v-6.715h.884v6.715h-.884zm5.427.108a3.37 3.37 0 01-1.317-.253 3.242 3.242 0 01-1.046-.73 3.334 3.334 0 01-.686-1.099 3.802 3.802 0 01-.243-1.379c0-.505.08-.968.243-1.388.163-.421.391-.788.686-1.1a3.025 3.025 0 011.046-.721 3.286 3.286 0 011.317-.261c.463 0 .878.081 1.245.243.373.162.685.372.938.631a2.3 2.3 0 01.55.829l-.812.37a2.028 2.028 0 00-.73-.902c-.331-.234-.728-.351-1.191-.351-.47 0-.887.111-1.254.333-.36.223-.643.532-.848.929-.204.396-.306.859-.306 1.388 0 .522.102.982.306 1.379.205.396.487.706.848.928.367.222.785.334 1.254.334.463 0 .86-.115 1.19-.343a2.08 2.08 0 00.731-.91l.812.369a2.3 2.3 0 01-.55.83 2.924 2.924 0 01-.938.63 3.034 3.034 0 01-1.245.244zm7.253 0c-.337 0-.655-.063-.956-.189a2.299 2.299 0 01-.767-.532 2.2 2.2 0 01-.478-.829l.749-.307c.126.337.316.598.568.784.259.186.553.28.884.28.27 0 .508-.054.713-.163.204-.108.364-.264.478-.468.12-.205.18-.451.18-.739 0-.295-.06-.541-.18-.739a1.14 1.14 0 00-.487-.469 1.483 1.483 0 00-.704-.162c-.09 0-.186.006-.288.018a1.53 1.53 0 00-.262.054l-.18-.406 1.713-2.19h-2.85v-.766h3.86v.739l-1.66 2.109-.053-.234c.39.012.733.105 1.028.279.3.174.535.412.704.712.168.294.252.64.252 1.037 0 .408-.099.778-.297 1.108a2.09 2.09 0 01-.803.784 2.298 2.298 0 01-1.164.289zm-72.123 43.456v-6.715h4.374v.811h-3.49v2.128h3.31v.811h-3.31v2.154h3.49v.811H18.79zm5.325 0v-4.858h.821v.946l-.135-.081c.12-.306.313-.544.577-.712.27-.174.587-.261.947-.261.35 0 .659.078.93.234.276.156.492.373.649.649.162.276.243.589.243.937v3.146h-.848v-2.875a1.48 1.48 0 00-.144-.685 1.03 1.03 0 00-.415-.433 1.124 1.124 0 00-.604-.162 1.17 1.17 0 00-.613.162c-.175.102-.313.25-.415.442a1.383 1.383 0 00-.154.676v2.875h-.838zm7.506 1.983c-.343 0-.662-.054-.956-.162a2.289 2.289 0 01-.749-.451 1.879 1.879 0 01-.469-.658l.785-.36c.084.228.243.42.478.576.24.163.541.244.902.244.276 0 .526-.054.748-.162.229-.103.41-.259.542-.469a1.35 1.35 0 00.198-.748v-1.091l.153.162a1.747 1.747 0 01-.73.758 2.097 2.097 0 01-1.037.261c-.457 0-.866-.105-1.227-.316a2.315 2.315 0 01-.848-.874 2.523 2.523 0 01-.307-1.235c0-.456.102-.868.307-1.234.204-.367.484-.655.839-.866a2.34 2.34 0 011.227-.324c.378 0 .721.087 1.028.261.313.168.562.403.748.703l-.126.226v-1.082h.821v4.651c0 .42-.1.796-.298 1.126a2.069 2.069 0 01-.83.776 2.447 2.447 0 01-1.2.288zm-.063-2.911c.288 0 .547-.072.775-.217a1.61 1.61 0 00.56-.576 1.65 1.65 0 00.207-.821 1.628 1.628 0 00-.767-1.397 1.424 1.424 0 00-.775-.216c-.295 0-.563.072-.803.216-.24.144-.43.34-.568.586-.133.24-.199.511-.199.811 0 .301.066.574.199.821a1.541 1.541 0 001.371.793zm3.645.928v-4.858h.84v4.858h-.84zm0-5.633v-1.082h.84v1.082h-.84zm2.096 5.633v-4.858h.82v.946l-.135-.081c.12-.306.313-.544.578-.712a1.71 1.71 0 01.947-.261c.348 0 .658.078.929.234.276.156.493.373.65.649.161.276.243.589.243.937v3.146h-.848v-2.875c0-.271-.048-.499-.145-.685a1.03 1.03 0 00-.415-.433 1.124 1.124 0 00-.604-.162 1.17 1.17 0 00-.613.162c-.175.102-.313.25-.415.442a1.383 1.383 0 00-.154.676v2.875h-.838zm7.424.108c-.47 0-.887-.111-1.254-.333a2.383 2.383 0 01-.866-.911 2.708 2.708 0 01-.316-1.307c0-.486.103-.919.307-1.297.21-.379.493-.676.848-.893a2.26 2.26 0 011.209-.333c.36 0 .68.066.956.198.282.126.52.3.712.523.199.216.35.465.451.748.109.276.163.565.163.865 0 .066-.006.141-.018.226a2.566 2.566 0 01-.027.225H42.9v-.721h3.5l-.397.324a1.387 1.387 0 00-.09-.838 1.364 1.364 0 00-1.263-.802c-.283 0-.541.072-.776.216a1.466 1.466 0 00-.55.622c-.127.264-.178.58-.154.946-.024.355.03.667.163.938.138.264.33.472.577.622.253.144.526.216.82.216.326 0 .6-.075.822-.225.222-.15.403-.343.54-.577l.705.36a1.788 1.788 0 01-.451.613 2.268 2.268 0 01-.713.433 2.44 2.44 0 01-.911.162zm5.495 0c-.469 0-.887-.111-1.253-.333a2.383 2.383 0 01-.866-.911 2.709 2.709 0 01-.316-1.307c0-.486.102-.919.307-1.297.21-.379.493-.676.848-.893a2.26 2.26 0 011.208-.333c.361 0 .68.066.956.198.283.126.52.3.713.523.198.216.349.465.45.748.11.276.163.565.163.865 0 .066-.006.141-.018.226a2.528 2.528 0 01-.027.225h-3.987v-.721h3.5l-.397.324a1.388 1.388 0 00-.09-.838 1.363 1.363 0 00-1.263-.802c-.282 0-.541.072-.776.216a1.466 1.466 0 00-.55.622c-.126.264-.177.58-.153.946-.024.355.03.667.162.938.139.264.331.472.578.622.252.144.526.216.82.216.325 0 .599-.075.821-.225.223-.15.403-.343.541-.577l.704.36a1.787 1.787 0 01-.451.613 2.267 2.267 0 01-.713.433c-.27.108-.574.162-.91.162zm3.259-.108v-4.858h.82v.892l-.09-.126c.115-.276.29-.481.524-.613.234-.138.52-.207.857-.207h.297v.793h-.424c-.343 0-.62.108-.83.324-.21.211-.315.511-.315.902v2.893h-.84zm3.108 0v-4.858h.84v4.858h-.84zm0-5.633v-1.082h.84v1.082h-.84zm2.096 5.633v-4.858h.82v.946l-.135-.081c.12-.306.313-.544.577-.712.271-.174.587-.261.947-.261.35 0 .659.078.93.234.276.156.493.373.649.649.162.276.243.589.243.937v3.146h-.847v-2.875c0-.271-.048-.499-.145-.685a1.03 1.03 0 00-.415-.433 1.124 1.124 0 00-.604-.162 1.17 1.17 0 00-.613.162c-.175.102-.313.25-.415.442a1.385 1.385 0 00-.154.676v2.875h-.838zm7.505 1.983c-.343 0-.662-.054-.956-.162a2.288 2.288 0 01-.749-.451 1.877 1.877 0 01-.469-.658l.785-.36c.084.228.243.42.478.576.24.163.541.244.902.244.277 0 .526-.054.749-.162.228-.103.409-.259.54-.469.133-.204.2-.454.2-.748v-1.091l.153.162a1.747 1.747 0 01-.731.758 2.097 2.097 0 01-1.037.261c-.457 0-.866-.105-1.227-.316a2.314 2.314 0 01-.848-.874 2.522 2.522 0 01-.307-1.235c0-.456.103-.868.307-1.234.205-.367.484-.655.839-.866a2.34 2.34 0 011.227-.324c.379 0 .721.087 1.028.261.313.168.562.403.749.703l-.127.226v-1.082h.821v4.651a2.07 2.07 0 01-1.127 1.902 2.446 2.446 0 01-1.2.288zm-.063-2.911c.288 0 .547-.072.776-.217.234-.144.42-.336.559-.576a1.65 1.65 0 00.207-.821 1.628 1.628 0 00-.766-1.397 1.424 1.424 0 00-.776-.216c-.295 0-.562.072-.803.216-.24.144-.43.34-.568.586-.133.24-.199.511-.199.811 0 .301.066.574.199.821a1.542 1.542 0 001.371.793zm5.223-1.118v-.766h3.969v.766h-3.97zm6.887 2.046v-6.715h.884v6.715h-.884zm5.427.108c-.475 0-.914-.084-1.317-.252a3.257 3.257 0 01-1.046-.73 3.338 3.338 0 01-.686-1.1 3.796 3.796 0 01-.243-1.379c0-.505.08-.967.243-1.388.163-.421.391-.787.686-1.1a3.038 3.038 0 011.046-.721 3.285 3.285 0 011.317-.261c.463 0 .878.081 1.245.243.373.163.685.373.938.631a2.3 2.3 0 01.55.83l-.812.369a2.025 2.025 0 00-.73-.901c-.331-.235-.728-.352-1.191-.352-.47 0-.887.111-1.254.334a2.3 2.3 0 00-.848.928c-.204.397-.306.859-.306 1.388 0 .523.102.983.306 1.379.205.397.487.706.848.929.367.222.785.333 1.254.333.463 0 .86-.114 1.19-.342.331-.235.575-.538.731-.911l.812.37a2.296 2.296 0 01-.55.829 2.926 2.926 0 01-.938.631 3.05 3.05 0 01-1.245.243zm8.092-.108v-1.55h-3.103v-.73l3.067-4.435h.848v4.435h.848v.73h-.848v1.55h-.812zm-2.435-1.965l-.136-.315h2.571v-3.696l.244.072-2.68 3.939zm-70.527 45.53v-6.715h4.374v.811h-3.49v2.127h3.31v.811h-3.31v2.154h3.49v.812H18.79zm5.325 0v-4.859h.821v.947l-.135-.081a1.44 1.44 0 01.577-.712c.27-.175.587-.262.947-.262.35 0 .659.078.93.235.276.156.492.372.649.649.162.276.243.588.243.937v3.146h-.848v-2.876c0-.27-.048-.498-.144-.685a1.028 1.028 0 00-.415-.432 1.116 1.116 0 00-.604-.163c-.229 0-.433.054-.613.163a1.09 1.09 0 00-.415.441 1.389 1.389 0 00-.154.676v2.876h-.838zm7.506 1.982c-.343 0-.662-.054-.956-.162a2.286 2.286 0 01-.749-.45 1.897 1.897 0 01-.469-.658l.785-.361c.084.228.243.421.478.577.24.162.541.243.902.243.276 0 .526-.054.748-.162.229-.102.41-.258.542-.469.132-.204.198-.453.198-.748v-1.09l.153.162c-.168.33-.412.583-.73.757a2.097 2.097 0 01-1.037.261c-.457 0-.866-.105-1.227-.315a2.322 2.322 0 01-.848-.874 2.528 2.528 0 01-.307-1.235c0-.457.102-.869.307-1.235.204-.367.484-.655.839-.865.36-.217.77-.325 1.227-.325.378 0 .721.087 1.028.262.313.168.562.402.748.703l-.126.225v-1.082h.821v4.651c0 .421-.1.796-.298 1.127-.198.33-.475.589-.83.775a2.447 2.447 0 01-1.2.288zm-.063-2.911c.288 0 .547-.072.775-.216a1.61 1.61 0 00.56-.577c.138-.246.207-.52.207-.82a1.626 1.626 0 00-.767-1.397 1.425 1.425 0 00-.775-.217 1.558 1.558 0 00-1.371.803 1.65 1.65 0 00-.199.811c0 .3.066.574.199.82.138.24.324.433.559.577.24.144.511.216.812.216zm3.645.929v-4.859h.84v4.859h-.84zm0-5.634v-1.081h.84v1.081h-.84zm2.096 5.634v-4.859h.82v.947l-.135-.081a1.44 1.44 0 01.578-.712c.27-.175.586-.262.947-.262.348 0 .658.078.929.235.276.156.493.372.65.649.161.276.243.588.243.937v3.146h-.848v-2.876c0-.27-.048-.498-.145-.685a1.028 1.028 0 00-.415-.432 1.116 1.116 0 00-.604-.163c-.228 0-.433.054-.613.163a1.09 1.09 0 00-.415.441 1.389 1.389 0 00-.154.676v2.876h-.838zm7.424.108c-.47 0-.887-.111-1.254-.334a2.38 2.38 0 01-.866-.91 2.71 2.71 0 01-.316-1.307c0-.487.103-.919.307-1.298.21-.379.493-.676.848-.892.36-.223.764-.334 1.209-.334.36 0 .68.066.956.199.282.126.52.3.712.522.199.217.35.466.451.748.109.277.163.565.163.866 0 .066-.006.141-.018.225a2.566 2.566 0 01-.027.225H42.9v-.721h3.5l-.397.325a1.39 1.39 0 00-.09-.839 1.367 1.367 0 00-1.263-.802 1.446 1.446 0 00-1.326.839c-.127.264-.178.579-.154.946-.024.354.03.667.163.937.138.265.33.472.577.622.253.144.526.217.82.217.326 0 .6-.076.822-.226.222-.15.403-.342.54-.577l.705.361a1.798 1.798 0 01-.451.613 2.42 2.42 0 01-1.624.595zm5.495 0a2.36 2.36 0 01-1.253-.334 2.38 2.38 0 01-.866-.91 2.712 2.712 0 01-.316-1.307c0-.487.102-.919.307-1.298.21-.379.493-.676.848-.892.36-.223.763-.334 1.208-.334.361 0 .68.066.956.199.283.126.52.3.713.522a2.2 2.2 0 01.45.748c.11.277.163.565.163.866 0 .066-.006.141-.018.225a2.528 2.528 0 01-.027.225h-3.987v-.721h3.5l-.397.325a1.391 1.391 0 00-.09-.839 1.368 1.368 0 00-1.263-.802 1.446 1.446 0 00-1.326.839c-.126.264-.177.579-.153.946-.024.354.03.667.162.937.139.265.331.472.578.622.252.144.526.217.82.217.325 0 .599-.076.821-.226.223-.15.403-.342.541-.577l.704.361a1.796 1.796 0 01-.451.613 2.42 2.42 0 01-1.624.595zm3.259-.108v-4.859h.82v.893l-.09-.126a1.2 1.2 0 01.524-.613c.234-.139.52-.208.857-.208h.297v.793h-.424c-.343 0-.62.109-.83.325-.21.21-.315.511-.315.901v2.894h-.84zm3.108 0v-4.859h.84v4.859h-.84zm0-5.634v-1.081h.84v1.081h-.84zm2.096 5.634v-4.859h.82v.947l-.135-.081a1.44 1.44 0 01.577-.712c.271-.175.587-.262.947-.262.35 0 .659.078.93.235.276.156.493.372.649.649.162.276.243.588.243.937v3.146h-.847v-2.876c0-.27-.048-.498-.145-.685a1.028 1.028 0 00-.415-.432 1.116 1.116 0 00-.604-.163c-.228 0-.433.054-.613.163a1.09 1.09 0 00-.415.441 1.39 1.39 0 00-.154.676v2.876h-.838zm7.505 1.982c-.343 0-.662-.054-.956-.162a2.285 2.285 0 01-.749-.45 1.896 1.896 0 01-.469-.658l.785-.361c.084.228.243.421.478.577.24.162.541.243.902.243.277 0 .526-.054.749-.162.228-.102.409-.258.54-.469.133-.204.2-.453.2-.748v-1.09l.153.162c-.169.33-.412.583-.731.757a2.097 2.097 0 01-1.037.261c-.457 0-.866-.105-1.227-.315a2.322 2.322 0 01-.848-.874 2.527 2.527 0 01-.307-1.235c0-.457.103-.869.307-1.235.205-.367.484-.655.839-.865.36-.217.77-.325 1.227-.325.379 0 .721.087 1.028.262.313.168.562.402.749.703l-.127.225v-1.082h.821v4.651c0 .421-.1.796-.297 1.127-.199.33-.476.589-.83.775a2.446 2.446 0 01-1.2.288zm-.063-2.911c.288 0 .547-.072.776-.216a1.61 1.61 0 00.559-.577c.138-.246.207-.52.207-.82a1.626 1.626 0 00-.766-1.397 1.425 1.425 0 00-.776-.217 1.558 1.558 0 00-1.371.803 1.65 1.65 0 00-.199.811c0 .3.066.574.199.82.138.24.325.433.559.577.24.144.511.216.812.216zm5.223-1.117v-.767h3.969v.767h-3.97zm6.887 2.046v-6.715h.884v6.715h-.884zm5.427.108a3.37 3.37 0 01-1.317-.253 3.242 3.242 0 01-1.046-.73 3.334 3.334 0 01-.686-1.099 3.804 3.804 0 01-.243-1.379c0-.505.08-.968.243-1.388.163-.421.391-.788.686-1.1a3.011 3.011 0 011.046-.721 3.286 3.286 0 011.317-.262c.463 0 .878.082 1.245.244.373.162.685.372.938.631a2.3 2.3 0 01.55.829l-.812.37a2.028 2.028 0 00-.73-.902c-.331-.234-.728-.351-1.191-.351-.47 0-.887.111-1.254.333-.36.222-.643.532-.848.929-.204.396-.306.859-.306 1.388 0 .522.102.982.306 1.379.205.396.487.706.848.928.367.222.785.334 1.254.334.463 0 .86-.115 1.19-.343a2.08 2.08 0 00.731-.91l.812.369a2.288 2.288 0 01-.55.829 3.034 3.034 0 01-2.183.875zm7.298 0a2.54 2.54 0 01-.956-.181 2.281 2.281 0 01-.767-.531 2.206 2.206 0 01-.478-.821l.731-.306c.12.318.313.574.577.766.265.186.563.28.893.28.253 0 .478-.061.677-.181a1.31 1.31 0 00.478-.513c.12-.223.18-.469.18-.74 0-.282-.06-.531-.18-.748a1.248 1.248 0 00-.478-.504 1.212 1.212 0 00-.668-.19 1.4 1.4 0 00-.721.19 1.152 1.152 0 00-.47.477l-.72-.153.495-3.668h3.383v.766h-3.04l.334-.343-.37 2.848-.298-.18c.18-.252.4-.432.659-.541.258-.114.54-.171.847-.171.415 0 .782.099 1.101.298.319.198.568.462.749.793.18.33.27.706.27 1.126 0 .421-.096.8-.288 1.136a2.14 2.14 0 01-.803.802 2.244 2.244 0 01-1.137.289zM18.789 270.4v-6.715h4.374v.811h-3.49v2.127h3.31v.812h-3.31v2.154h3.49v.811H18.79zm5.325 0v-4.858h.821v.946l-.135-.081c.12-.306.313-.544.577-.712.27-.174.587-.261.947-.261.35 0 .659.078.93.234.276.156.492.373.649.649.162.276.243.589.243.937v3.146h-.848v-2.875a1.48 1.48 0 00-.144-.685 1.025 1.025 0 00-.415-.433 1.124 1.124 0 00-.604-.162 1.17 1.17 0 00-.613.162 1.087 1.087 0 00-.415.442 1.383 1.383 0 00-.154.676v2.875h-.838zm7.506 1.983c-.343 0-.662-.054-.956-.162a2.289 2.289 0 01-.749-.451 1.888 1.888 0 01-.469-.658l.785-.36c.084.228.243.42.478.576.24.163.541.244.902.244.276 0 .526-.054.748-.163.229-.102.41-.258.542-.468a1.35 1.35 0 00.198-.748v-1.091l.153.162a1.739 1.739 0 01-.73.757 2.087 2.087 0 01-1.037.262c-.457 0-.866-.105-1.227-.316a2.315 2.315 0 01-.848-.874 2.523 2.523 0 01-.307-1.235c0-.456.102-.868.307-1.235.204-.366.484-.655.839-.865a2.34 2.34 0 011.227-.324c.378 0 .721.087 1.028.261.313.168.562.403.748.703l-.126.225v-1.081h.821v4.651c0 .42-.1.796-.298 1.126a2.069 2.069 0 01-.83.776 2.447 2.447 0 01-1.2.288zm-.063-2.911c.288 0 .547-.072.775-.217.235-.144.421-.336.56-.577.138-.246.207-.519.207-.82a1.628 1.628 0 00-.767-1.397 1.424 1.424 0 00-.775-.216c-.295 0-.563.072-.803.216-.24.144-.43.34-.568.586-.133.24-.199.511-.199.811 0 .301.066.574.199.82a1.541 1.541 0 001.371.794zm3.645.928v-4.858h.84v4.858h-.84zm0-5.633v-1.082h.84v1.082h-.84zm2.096 5.633v-4.858h.82v.946l-.135-.081c.12-.306.313-.544.578-.712a1.71 1.71 0 01.947-.261c.348 0 .658.078.929.234.276.156.493.373.65.649.161.276.243.589.243.937v3.146h-.848v-2.875c0-.271-.048-.499-.145-.685a1.025 1.025 0 00-.415-.433 1.124 1.124 0 00-.604-.162 1.17 1.17 0 00-.613.162 1.087 1.087 0 00-.415.442 1.383 1.383 0 00-.154.676v2.875h-.838zm7.424.108c-.47 0-.887-.111-1.254-.333a2.383 2.383 0 01-.866-.911 2.708 2.708 0 01-.316-1.307c0-.486.103-.919.307-1.298a2.37 2.37 0 01.848-.892 2.26 2.26 0 011.209-.333c.36 0 .68.066.956.198.282.126.52.3.712.523.199.216.35.465.451.748.109.276.163.565.163.865 0 .066-.006.141-.018.225a2.544 2.544 0 01-.027.226H42.9v-.721h3.5l-.397.324a1.387 1.387 0 00-.09-.838 1.364 1.364 0 00-1.263-.802c-.283 0-.541.072-.776.216a1.466 1.466 0 00-.55.622c-.127.264-.178.58-.154.946-.024.355.03.667.163.938.138.264.33.471.577.622.253.144.526.216.82.216.326 0 .6-.075.822-.225.222-.151.403-.343.54-.577l.705.36a1.788 1.788 0 01-.451.613 2.27 2.27 0 01-.713.433 2.44 2.44 0 01-.911.162zm5.495 0c-.469 0-.887-.111-1.253-.333a2.383 2.383 0 01-.866-.911 2.709 2.709 0 01-.316-1.307c0-.486.102-.919.307-1.298a2.37 2.37 0 01.848-.892 2.26 2.26 0 011.208-.333c.361 0 .68.066.956.198.283.126.52.3.713.523.198.216.349.465.45.748.11.276.163.565.163.865 0 .066-.006.141-.018.225a2.543 2.543 0 01-.027.226h-3.987v-.721h3.5l-.397.324a1.388 1.388 0 00-.09-.838 1.364 1.364 0 00-1.263-.802c-.282 0-.541.072-.776.216a1.466 1.466 0 00-.55.622c-.126.264-.177.58-.153.946-.024.355.03.667.162.938.139.264.331.471.578.622.252.144.526.216.82.216.325 0 .599-.075.821-.225.223-.151.403-.343.541-.577l.704.36a1.787 1.787 0 01-.451.613 2.268 2.268 0 01-.713.433c-.27.108-.574.162-.91.162zm3.259-.108v-4.858h.82v.892l-.09-.126c.115-.276.29-.481.524-.613.234-.138.52-.207.857-.207h.297v.793h-.424c-.343 0-.62.108-.83.324-.21.211-.315.511-.315.902v2.893h-.84zm3.108 0v-4.858h.84v4.858h-.84zm0-5.633v-1.082h.84v1.082h-.84zm2.096 5.633v-4.858h.82v.946l-.135-.081c.12-.306.313-.544.577-.712.271-.174.587-.261.947-.261.35 0 .659.078.93.234.276.156.493.373.649.649.162.276.243.589.243.937v3.146h-.847v-2.875c0-.271-.048-.499-.145-.685a1.025 1.025 0 00-.415-.433 1.124 1.124 0 00-.604-.162 1.17 1.17 0 00-.613.162 1.087 1.087 0 00-.415.442 1.385 1.385 0 00-.154.676v2.875h-.838zm7.505 1.983c-.343 0-.662-.054-.956-.162a2.288 2.288 0 01-.749-.451 1.886 1.886 0 01-.469-.658l.785-.36c.084.228.243.42.478.576.24.163.541.244.902.244.277 0 .526-.054.749-.163a1.2 1.2 0 00.54-.468c.133-.204.2-.454.2-.748v-1.091l.153.162a1.74 1.74 0 01-.731.757 2.087 2.087 0 01-1.037.262c-.457 0-.866-.105-1.227-.316a2.314 2.314 0 01-.848-.874 2.522 2.522 0 01-.307-1.235 2.5 2.5 0 01.307-1.235c.205-.366.484-.655.839-.865a2.34 2.34 0 011.227-.324c.379 0 .721.087 1.028.261.313.168.562.403.749.703l-.127.225v-1.081h.821v4.651a2.07 2.07 0 01-1.127 1.902 2.446 2.446 0 01-1.2.288zm-.063-2.911c.288 0 .547-.072.776-.217a1.61 1.61 0 00.559-.577c.138-.246.207-.519.207-.82a1.628 1.628 0 00-.766-1.397 1.425 1.425 0 00-.776-.216c-.295 0-.562.072-.803.216-.24.144-.43.34-.568.586-.133.24-.199.511-.199.811 0 .301.066.574.199.82a1.542 1.542 0 001.371.794zm5.223-1.118v-.766h3.969v.766h-3.97zm6.887 2.046v-6.715h.884v6.715h-.884zm5.427.108c-.475 0-.914-.084-1.317-.252a3.258 3.258 0 01-1.046-.73 3.338 3.338 0 01-.686-1.1 3.798 3.798 0 01-.243-1.379c0-.505.08-.967.243-1.388.163-.421.391-.787.686-1.1a3.039 3.039 0 011.046-.721 3.286 3.286 0 011.317-.261c.463 0 .878.081 1.245.243.373.163.685.373.938.631.258.259.442.535.55.829l-.812.37a2.02 2.02 0 00-.73-.901c-.331-.235-.728-.352-1.191-.352-.47 0-.887.111-1.254.334a2.3 2.3 0 00-.848.928c-.204.397-.306.859-.306 1.388 0 .523.102.983.306 1.379a2.3 2.3 0 00.848.928c.367.223.785.334 1.254.334.463 0 .86-.114 1.19-.343.331-.234.575-.537.731-.91l.812.37a2.296 2.296 0 01-.55.829 2.926 2.926 0 01-.938.631 3.05 3.05 0 01-1.245.243zm7.37 0c-.42 0-.796-.096-1.127-.288a2.096 2.096 0 01-.767-.784 2.324 2.324 0 01-.28-1.145c0-.234.025-.463.073-.685.054-.228.138-.46.252-.694.12-.241.274-.487.46-.739l1.85-2.488h1.064l-2.255 3.011-.172-.018a1.07 1.07 0 01.65-.424 1.96 1.96 0 011.434.234c.313.18.556.43.73.748.181.319.271.685.271 1.1 0 .415-.096.787-.288 1.118a2.095 2.095 0 01-.776.775 2.21 2.21 0 01-1.119.279zm.01-.793c.246 0 .465-.057.658-.171.192-.12.343-.286.45-.496a1.44 1.44 0 00.172-.703c0-.264-.057-.499-.171-.703a1.218 1.218 0 00-1.11-.667c-.24 0-.46.06-.658.18s-.355.283-.469.487a1.445 1.445 0 00-.162.703c0 .258.057.493.171.703.114.21.268.376.46.496.198.114.418.171.659.171z" fill="#000"/><path d="M108.616 27.04v261.387M152.964 27.04v261.387M197.312 27.04v261.387M241.661 27.04v261.387M286.009 27.04v261.387M330.358 27.04v261.387M374.706 27.04v261.387M419.054 27.04v261.387" stroke="#D8D8D8" stroke-width="2"/><path d="M105.678 309.19a2.693 2.693 0 01-2.048-.892 2.509 2.509 0 01-.514-.91l.65-.244c.156.457.4.805.73 1.046.331.234.725.351 1.182.351.289 0 .541-.045.758-.135.222-.096.393-.228.514-.396a.986.986 0 00.18-.586c0-.331-.09-.586-.27-.766-.181-.181-.439-.319-.776-.415l-1.209-.361c-.475-.138-.842-.369-1.1-.694a1.753 1.753 0 01-.379-1.108c0-.355.087-.667.261-.938.175-.276.412-.492.713-.649a2.257 2.257 0 011.037-.234c.403 0 .764.075 1.083.225.324.145.598.337.821.577.222.241.381.508.478.802l-.632.253c-.144-.397-.37-.697-.676-.902a1.852 1.852 0 00-1.065-.306c-.258 0-.487.045-.685.135-.193.09-.343.219-.451.388a1.076 1.076 0 00-.163.595c0 .276.088.525.262.748.174.216.442.378.803.486l1.064.316c.529.156.929.381 1.2.676.27.294.406.664.406 1.109 0 .36-.093.679-.28.955-.18.27-.436.484-.767.64a2.57 2.57 0 01-1.127.234zm-.388.793v-8.517h.631v8.517h-.631zm5.877-.793c-.758 0-1.341-.3-1.75-.901-.409-.601-.614-1.457-.614-2.569 0-1.112.202-1.965.605-2.56.409-.601.992-.901 1.75-.901.757 0 1.338.3 1.74.901.409.595.614 1.448.614 2.56s-.205 1.968-.614 2.569c-.402.601-.98.901-1.731.901zm0-.676c.523 0 .926-.24 1.208-.721.283-.487.424-1.178.424-2.073s-.141-1.583-.424-2.064c-.282-.481-.688-.721-1.217-.721-.524 0-.926.24-1.209.721-.283.481-.424 1.169-.424 2.064s.141 1.586.424 2.073c.283.481.688.721 1.218.721zm33.204.676c-.427 0-.815-.081-1.163-.243a2.673 2.673 0 01-.884-.649 2.511 2.511 0 01-.515-.91l.65-.244c.156.457.4.805.731 1.046.33.234.724.351 1.181.351.289 0 .541-.045.758-.135.222-.096.394-.228.514-.396a.986.986 0 00.18-.586c0-.331-.09-.586-.27-.766-.181-.181-.439-.319-.776-.415l-1.209-.361c-.475-.138-.842-.369-1.1-.694a1.753 1.753 0 01-.379-1.108c0-.355.087-.667.262-.938.174-.276.412-.492.712-.649a2.259 2.259 0 011.038-.234c.402 0 .763.075 1.082.225.325.145.598.337.821.577.222.241.382.508.478.802l-.632.253c-.144-.397-.369-.697-.676-.902a1.851 1.851 0 00-1.064-.306c-.259 0-.488.045-.686.135a1.05 1.05 0 00-.451.388 1.075 1.075 0 00-.162.595c0 .276.087.525.261.748.175.216.442.378.803.486l1.064.316c.53.156.929.381 1.2.676.271.294.406.664.406 1.109 0 .36-.093.679-.28.955-.18.27-.436.484-.766.64a2.578 2.578 0 01-1.128.234zm-.388.793v-8.517h.632v8.517h-.632zm5.814-.793a2.46 2.46 0 01-.938-.18 2.239 2.239 0 01-.758-.514 2.188 2.188 0 01-.478-.793l.559-.27c.126.33.334.601.622.811.295.21.626.315.993.315.276 0 .523-.069.739-.207a1.45 1.45 0 00.523-.559c.133-.24.199-.508.199-.802 0-.306-.066-.577-.199-.811a1.386 1.386 0 00-.523-.55 1.329 1.329 0 00-.73-.207c-.283 0-.545.069-.785.207a1.226 1.226 0 00-.505.487l-.577-.108.487-3.642h3.292v.631h-3.031l.28-.243-.379 2.866-.271-.126a1.6 1.6 0 01.695-.55c.277-.114.556-.171.839-.171.415 0 .782.102 1.1.306.319.198.568.466.749.802.186.331.279.7.279 1.109 0 .415-.096.79-.288 1.127-.187.33-.445.592-.776.784a2.185 2.185 0 01-1.118.288zm5.471 0c-.758 0-1.341-.3-1.75-.901-.409-.601-.613-1.457-.613-2.569 0-1.112.201-1.965.604-2.56.409-.601.992-.901 1.75-.901s1.338.3 1.741.901c.409.595.613 1.448.613 2.56s-.204 1.968-.613 2.569c-.403.601-.98.901-1.732.901zm0-.676c.523 0 .926-.24 1.209-.721.282-.487.424-1.178.424-2.073s-.142-1.583-.424-2.064c-.283-.481-.689-.721-1.218-.721-.523 0-.926.24-1.209.721-.282.481-.424 1.169-.424 2.064s.142 1.586.424 2.073c.283.481.689.721 1.218.721zm3.487.568v-6.715h.722v3.921l-.162-.081 3.382-3.84h.902l-2.715 3.083.036-.514 2.841 4.146h-.865l-2.292-3.308-1.127 1.28v2.028h-.722zm27.448.108c-.427 0-.815-.081-1.163-.243a2.673 2.673 0 01-.884-.649 2.494 2.494 0 01-.514-.91l.649-.244c.156.457.4.805.731 1.046.33.234.724.351 1.181.351.289 0 .541-.045.758-.135.222-.096.394-.228.514-.396a.986.986 0 00.18-.586c0-.331-.09-.586-.27-.766-.181-.181-.439-.319-.776-.415l-1.209-.361c-.475-.138-.841-.369-1.1-.694a1.753 1.753 0 01-.379-1.108c0-.355.087-.667.262-.938.174-.276.412-.492.712-.649a2.259 2.259 0 011.038-.234c.403 0 .763.075 1.082.225.325.145.598.337.821.577.222.241.382.508.478.802l-.631.253c-.145-.397-.37-.697-.677-.902a1.85 1.85 0 00-1.064-.306c-.259 0-.487.045-.686.135a1.05 1.05 0 00-.451.388 1.075 1.075 0 00-.162.595c0 .276.087.525.261.748.175.216.442.378.803.486l1.064.316c.53.156.93.381 1.2.676.271.294.406.664.406 1.109 0 .36-.093.679-.28.955-.18.27-.436.484-.766.64a2.578 2.578 0 01-1.128.234zm-.388.793v-8.517h.632v8.517h-.632zm3.676-.901v-.631h1.822v-5.453h-1.272v-.631h2.011v6.084h1.822v.631h-4.383zm7.609.108c-.758 0-1.341-.3-1.75-.901-.409-.601-.613-1.457-.613-2.569 0-1.112.201-1.965.604-2.56.409-.601.992-.901 1.75-.901s1.338.3 1.741.901c.409.595.613 1.448.613 2.56s-.204 1.968-.613 2.569c-.403.601-.98.901-1.732.901zm0-.676c.523 0 .926-.24 1.209-.721.282-.487.424-1.178.424-2.073s-.142-1.583-.424-2.064c-.283-.481-.689-.721-1.218-.721-.523 0-.926.24-1.209.721-.282.481-.424 1.169-.424 2.064s.142 1.586.424 2.073c.283.481.689.721 1.218.721zm5.409.676c-.758 0-1.341-.3-1.75-.901-.409-.601-.613-1.457-.613-2.569 0-1.112.201-1.965.604-2.56.409-.601.992-.901 1.75-.901.757 0 1.338.3 1.741.901.409.595.613 1.448.613 2.56s-.204 1.968-.613 2.569c-.403.601-.981.901-1.732.901zm0-.676c.523 0 .926-.24 1.208-.721.283-.487.424-1.178.424-2.073s-.141-1.583-.424-2.064c-.282-.481-.688-.721-1.217-.721-.523 0-.926.24-1.209.721-.283.481-.424 1.169-.424 2.064s.141 1.586.424 2.073c.283.481.689.721 1.218.721zm3.487.568v-6.715h.721v3.921l-.162-.081 3.382-3.84h.902l-2.715 3.083.037-.514 2.841 4.146h-.866l-2.291-3.308-1.128 1.28v2.028h-.721zm24.556.108a2.683 2.683 0 01-2.048-.892 2.494 2.494 0 01-.514-.91l.649-.244c.157.457.4.805.731 1.046.331.234.725.351 1.182.351.288 0 .541-.045.757-.135a1.19 1.19 0 00.514-.396.98.98 0 00.181-.586c0-.331-.09-.586-.271-.766-.18-.181-.439-.319-.776-.415l-1.208-.361c-.475-.138-.842-.369-1.101-.694a1.759 1.759 0 01-.379-1.108c0-.355.088-.667.262-.938.174-.276.412-.492.713-.649a2.251 2.251 0 011.037-.234c.403 0 .764.075 1.082.225.325.145.599.337.821.577.223.241.382.508.478.802l-.631.253c-.144-.397-.37-.697-.677-.902a1.847 1.847 0 00-1.064-.306c-.259 0-.487.045-.686.135-.192.09-.342.219-.451.388a1.075 1.075 0 00-.162.595c0 .276.087.525.262.748.174.216.442.378.802.486l1.065.316c.529.156.929.381 1.199.676.271.294.406.664.406 1.109 0 .36-.093.679-.279.955-.181.27-.436.484-.767.64a2.576 2.576 0 01-1.127.234zm-.388.793v-8.517h.631v8.517h-.631zm3.675-.901v-.631h1.822v-5.453h-1.272v-.631h2.012v6.084h1.822v.631h-4.384zm7.546.108c-.33 0-.643-.06-.938-.18a2.245 2.245 0 01-.757-.514 2.204 2.204 0 01-.479-.793l.56-.27c.126.33.333.601.622.811.295.21.626.315.992.315.277 0 .523-.069.74-.207.222-.138.397-.324.523-.559.132-.24.199-.508.199-.802 0-.306-.067-.577-.199-.811a1.392 1.392 0 00-.523-.55 1.332 1.332 0 00-.731-.207c-.282 0-.544.069-.784.207a1.235 1.235 0 00-.506.487l-.577-.108.487-3.642h3.293v.631h-3.031l.279-.243-.378 2.866-.271-.126c.192-.259.424-.442.695-.55a2.18 2.18 0 01.838-.171c.415 0 .782.102 1.101.306.319.198.568.466.749.802.186.331.279.7.279 1.109 0 .415-.096.79-.288 1.127-.187.33-.445.592-.776.784a2.189 2.189 0 01-1.119.288zm5.472 0c-.758 0-1.341-.3-1.75-.901-.409-.601-.613-1.457-.613-2.569 0-1.112.201-1.965.604-2.56.409-.601.992-.901 1.75-.901s1.338.3 1.741.901c.409.595.613 1.448.613 2.56s-.204 1.968-.613 2.569c-.403.601-.98.901-1.732.901zm0-.676c.523 0 .926-.24 1.209-.721.282-.487.424-1.178.424-2.073s-.142-1.583-.424-2.064c-.283-.481-.689-.721-1.218-.721-.523 0-.926.24-1.209.721-.282.481-.424 1.169-.424 2.064s.142 1.586.424 2.073c.283.481.689.721 1.218.721zm3.487.568v-6.715h.722v3.921l-.163-.081 3.383-3.84h.902l-2.715 3.083.036-.514 2.841 4.146h-.866l-2.291-3.308-1.127 1.28v2.028h-.722zm24.556.108a2.693 2.693 0 01-2.048-.892 2.509 2.509 0 01-.514-.91l.65-.244c.156.457.4.805.73 1.046.331.234.725.351 1.182.351.289 0 .541-.045.758-.135.222-.096.393-.228.514-.396a.986.986 0 00.18-.586c0-.331-.09-.586-.27-.766-.181-.181-.439-.319-.776-.415l-1.209-.361c-.475-.138-.842-.369-1.1-.694a1.753 1.753 0 01-.379-1.108c0-.355.087-.667.261-.938.175-.276.412-.492.713-.649a2.254 2.254 0 011.037-.234c.403 0 .764.075 1.083.225.324.145.598.337.821.577.222.241.381.508.478.802l-.632.253c-.144-.397-.37-.697-.676-.902a1.852 1.852 0 00-1.065-.306c-.258 0-.487.045-.685.135-.193.09-.343.219-.451.388a1.076 1.076 0 00-.163.595c0 .276.088.525.262.748.174.216.442.378.803.486l1.064.316c.529.156.929.381 1.2.676.27.294.406.664.406 1.109 0 .36-.093.679-.28.955-.18.27-.436.484-.767.64a2.57 2.57 0 01-1.127.234zm-.388.793v-8.517h.631v8.517h-.631zm3.729-.901v-.451l1.832-2.064c.366-.414.661-.754.884-1.018.228-.265.393-.502.496-.712a1.61 1.61 0 00.153-.694c0-.403-.114-.712-.343-.929-.222-.216-.523-.324-.902-.324-.385 0-.712.114-.983.342-.265.229-.445.547-.541.956l-.65-.144c.079-.367.217-.682.415-.947.205-.264.454-.468.749-.613a2.21 2.21 0 011.001-.225c.391 0 .734.081 1.028.243.301.163.536.385.704.667.168.283.253.607.253.974 0 .258-.055.508-.163.748a3.767 3.767 0 01-.46.757 18.71 18.71 0 01-.776.928l-1.668 1.875h3.238v.631h-4.267zm7.556.108c-.758 0-1.341-.3-1.75-.901-.409-.601-.613-1.457-.613-2.569 0-1.112.201-1.965.604-2.56.409-.601.992-.901 1.75-.901s1.338.3 1.741.901c.409.595.613 1.448.613 2.56s-.204 1.968-.613 2.569c-.403.601-.98.901-1.732.901zm0-.676c.523 0 .926-.24 1.209-.721.282-.487.423-1.178.423-2.073s-.141-1.583-.423-2.064c-.283-.481-.689-.721-1.218-.721-.523 0-.926.24-1.209.721-.282.481-.424 1.169-.424 2.064s.142 1.586.424 2.073c.283.481.689.721 1.218.721zm5.408.676c-.757 0-1.341-.3-1.749-.901-.409-.601-.614-1.457-.614-2.569 0-1.112.202-1.965.605-2.56.408-.601.992-.901 1.749-.901.758 0 1.338.3 1.741.901.409.595.614 1.448.614 2.56s-.205 1.968-.614 2.569c-.403.601-.98.901-1.732.901zm0-.676c.524 0 .927-.24 1.209-.721.283-.487.424-1.178.424-2.073s-.141-1.583-.424-2.064c-.282-.481-.688-.721-1.218-.721-.523 0-.926.24-1.208.721-.283.481-.424 1.169-.424 2.064s.141 1.586.424 2.073c.282.481.688.721 1.217.721zm3.487.568v-6.715h.722v3.921l-.162-.081 3.382-3.84h.902l-2.715 3.083.036-.514 2.842 4.146h-.866l-2.291-3.308-1.128 1.28v2.028h-.722zm24.556.108c-.427 0-.815-.081-1.163-.243a2.673 2.673 0 01-.884-.649 2.494 2.494 0 01-.514-.91l.649-.244c.156.457.4.805.731 1.046.33.234.724.351 1.181.351.289 0 .541-.045.758-.135.222-.096.394-.228.514-.396a.986.986 0 00.18-.586c0-.331-.09-.586-.27-.766-.181-.181-.439-.319-.776-.415l-1.209-.361c-.475-.138-.841-.369-1.1-.694a1.753 1.753 0 01-.379-1.108c0-.355.087-.667.262-.938.174-.276.412-.492.712-.649a2.259 2.259 0 011.038-.234c.402 0 .763.075 1.082.225.325.145.598.337.821.577.222.241.382.508.478.802l-.632.253c-.144-.397-.369-.697-.676-.902a1.85 1.85 0 00-1.064-.306c-.259 0-.487.045-.686.135a1.05 1.05 0 00-.451.388 1.075 1.075 0 00-.162.595c0 .276.087.525.261.748.175.216.442.378.803.486l1.064.316c.53.156.93.381 1.2.676.271.294.406.664.406 1.109 0 .36-.093.679-.28.955-.18.27-.436.484-.766.64a2.578 2.578 0 01-1.128.234zm-.388.793v-8.517h.632v8.517h-.632zm3.73-.901v-.451l1.831-2.064c.367-.414.661-.754.884-1.018.228-.265.394-.502.496-.712a1.61 1.61 0 00.153-.694c0-.403-.114-.712-.343-.929-.222-.216-.523-.324-.902-.324-.384 0-.712.114-.983.342-.264.229-.445.547-.541.956l-.649-.144c.078-.367.216-.682.415-.947.204-.264.454-.468.748-.613.301-.15.635-.225 1.001-.225.391 0 .734.081 1.029.243.3.163.535.385.703.667.169.283.253.607.253.974 0 .258-.054.508-.163.748a3.767 3.767 0 01-.46.757c-.204.264-.463.574-.775.928l-1.669 1.875h3.238v.631h-4.266zm7.492.108c-.331 0-.643-.06-.938-.18a2.249 2.249 0 01-.758-.514 2.202 2.202 0 01-.478-.793l.559-.27c.127.33.334.601.623.811.294.21.625.315.992.315.277 0 .523-.069.74-.207.222-.138.397-.324.523-.559.132-.24.198-.508.198-.802 0-.306-.066-.577-.198-.811a1.392 1.392 0 00-.523-.55 1.332 1.332 0 00-.731-.207c-.283 0-.544.069-.785.207a1.232 1.232 0 00-.505.487l-.577-.108.487-3.642h3.292v.631h-3.03l.279-.243-.379 2.866-.27-.126c.192-.259.424-.442.694-.55.277-.114.556-.171.839-.171.415 0 .782.102 1.101.306.318.198.568.466.748.802.187.331.28.7.28 1.109 0 .415-.096.79-.289 1.127-.186.33-.445.592-.776.784-.33.192-.703.288-1.118.288zm5.472 0c-.758 0-1.341-.3-1.75-.901-.409-.601-.613-1.457-.613-2.569 0-1.112.201-1.965.604-2.56.409-.601.992-.901 1.75-.901.757 0 1.338.3 1.741.901.408.595.613 1.448.613 2.56s-.205 1.968-.613 2.569c-.403.601-.981.901-1.732.901zm0-.676c.523 0 .926-.24 1.208-.721.283-.487.424-1.178.424-2.073s-.141-1.583-.424-2.064c-.282-.481-.688-.721-1.217-.721-.523 0-.926.24-1.209.721-.283.481-.424 1.169-.424 2.064s.141 1.586.424 2.073c.283.481.689.721 1.218.721zm3.487.568v-6.715h.721v3.921l-.162-.081 3.382-3.84h.902l-2.715 3.083.037-.514 2.841 4.146h-.866l-2.291-3.308-1.128 1.28v2.028h-.721zm24.556.108a2.683 2.683 0 01-2.048-.892 2.509 2.509 0 01-.514-.91l.649-.244c.157.457.4.805.731 1.046.331.234.725.351 1.182.351.288 0 .541-.045.757-.135a1.19 1.19 0 00.514-.396.98.98 0 00.181-.586c0-.331-.09-.586-.271-.766-.18-.181-.439-.319-.776-.415l-1.208-.361c-.475-.138-.842-.369-1.101-.694a1.758 1.758 0 01-.378-1.108c0-.355.087-.667.261-.938.174-.276.412-.492.713-.649a2.251 2.251 0 011.037-.234c.403 0 .764.075 1.082.225.325.145.599.337.821.577.223.241.382.508.478.802l-.631.253c-.144-.397-.37-.697-.677-.902a1.847 1.847 0 00-1.064-.306c-.259 0-.487.045-.686.135-.192.09-.342.219-.451.388a1.075 1.075 0 00-.162.595c0 .276.087.525.262.748.174.216.442.378.802.486l1.065.316c.529.156.929.381 1.2.676.27.294.405.664.405 1.109 0 .36-.093.679-.279.955-.181.27-.436.484-.767.64-.325.156-.7.234-1.127.234zm-.388.793v-8.517h.631v8.517h-.631zm5.768-.793c-.331 0-.641-.06-.929-.18a2.239 2.239 0 01-.758-.514 2.188 2.188 0 01-.478-.793l.577-.27c.138.348.346.625.623.829.282.198.604.297.965.297.288 0 .544-.057.766-.171.229-.12.406-.291.533-.514.126-.222.189-.492.189-.811 0-.318-.066-.589-.198-.811a1.238 1.238 0 00-.533-.505 1.635 1.635 0 00-.757-.171c-.079 0-.163.003-.253.009-.09.006-.168.015-.234.027l-.136-.316 1.741-2.298h-2.976v-.631h3.797v.631l-1.651 2.136-.081-.117c.391.012.737.108 1.037.288.301.175.536.412.704.713.174.3.262.649.262 1.045a2.112 2.112 0 01-1.065 1.848 2.296 2.296 0 01-1.145.279zm5.517 0c-.758 0-1.341-.3-1.75-.901-.409-.601-.614-1.457-.614-2.569 0-1.112.202-1.965.605-2.56.409-.601.992-.901 1.749-.901.758 0 1.338.3 1.74.901.41.595.613 1.448.613 2.56s-.203 1.968-.613 2.569c-.402.601-.979.901-1.73.901zm0-.676c.523 0 .926-.24 1.208-.721.282-.487.425-1.178.425-2.073s-.143-1.583-.425-2.064c-.282-.481-.688-.721-1.218-.721-.523 0-.926.24-1.208.721-.283.481-.424 1.169-.424 2.064s.141 1.586.424 2.073c.282.481.688.721 1.218.721zm5.41.676c-.76 0-1.342-.3-1.752-.901-.409-.601-.612-1.457-.612-2.569 0-1.112.199-1.965.605-2.56.406-.601.992-.901 1.747-.901.76 0 1.338.3 1.74.901.41.595.617 1.448.617 2.56s-.207 1.968-.617 2.569c-.402.601-.977.901-1.728.901zm0-.676c.522 0 .924-.24 1.206-.721.282-.487.425-1.178.425-2.073s-.143-1.583-.425-2.064c-.282-.481-.688-.721-1.218-.721-.522 0-.924.24-1.206.721-.286.481-.425 1.169-.425 2.064s.139 1.586.425 2.073c.282.481.688.721 1.218.721zm3.484.568v-6.715h.721v3.921l-.161-.081 3.382-3.84h.902l-2.713 3.083.033-.514 2.842 4.146h-.865l-2.292-3.308-1.128 1.28v2.028h-.721zm25.684.108c-.428 0-.816-.081-1.165-.243a2.7 2.7 0 01-.883-.649 2.54 2.54 0 01-.515-.91l.65-.244c.158.457.402.805.733 1.046.331.234.721.351 1.18.351.289 0 .541-.045.759-.135.222-.096.391-.228.511-.396a.98.98 0 00.181-.586c0-.331-.091-.586-.271-.766-.18-.181-.436-.319-.774-.415l-1.21-.361c-.474-.138-.842-.369-1.098-.694a1.741 1.741 0 01-.379-1.108c0-.355.086-.667.259-.938.177-.276.413-.492.714-.649a2.263 2.263 0 011.037-.234c.403 0 .763.075 1.083.225.323.145.597.337.819.577.226.241.383.508.481.802l-.631.253c-.147-.397-.372-.697-.677-.902a1.854 1.854 0 00-1.067-.306c-.256 0-.485.045-.684.135-.192.09-.342.219-.451.388a1.067 1.067 0 00-.162.595c0 .276.087.525.26.748.176.216.443.378.804.486l1.063.316c.53.156.929.381 1.199.676.271.294.406.664.406 1.109 0 .36-.09.679-.278.955-.18.27-.436.484-.767.64a2.564 2.564 0 01-1.127.234zm-.387.793v-8.517h.631v8.517h-.631zm5.769-.793a2.41 2.41 0 01-.932-.18 2.25 2.25 0 01-.756-.514 2.158 2.158 0 01-.477-.793l.575-.27c.139.348.346.625.624.829.282.198.605.297.966.297.286 0 .541-.057.767-.171.225-.12.405-.291.53-.514.127-.222.191-.492.191-.811 0-.318-.067-.589-.199-.811a1.24 1.24 0 00-.534-.505 1.624 1.624 0 00-.755-.171 3.92 3.92 0 00-.256.009c-.09.006-.165.015-.233.027l-.135-.316 1.74-2.298h-2.976v-.631h3.799v.631l-1.653 2.136-.079-.117a2.11 2.11 0 011.037.288c.301.175.534.412.703.713.173.3.263.649.263 1.045 0 .397-.098.757-.29 1.082a2.126 2.126 0 01-.778.766c-.33.186-.71.279-1.142.279zm5.453 0c-.33 0-.646-.06-.939-.18a2.257 2.257 0 01-.76-.514 2.214 2.214 0 01-.477-.793l.56-.27c.128.33.335.601.624.811.293.21.624.315.992.315.275 0 .523-.069.737-.207.225-.138.398-.324.526-.559.132-.24.195-.508.195-.802 0-.306-.063-.577-.195-.811a1.393 1.393 0 00-.526-.55 1.32 1.32 0 00-.729-.207c-.282 0-.545.069-.786.207a1.226 1.226 0 00-.503.487l-.579-.108.488-3.642h3.293v.631h-3.033l.282-.243-.38 2.866-.271-.126c.192-.259.425-.442.696-.55.274-.114.556-.171.838-.171.413 0 .782.102 1.101.306.32.198.568.466.748.802.188.331.278.7.278 1.109 0 .415-.094.79-.286 1.127-.187.33-.447.592-.778.784-.33.192-.702.288-1.116.288zm5.472 0c-.759 0-1.341-.3-1.751-.901-.41-.601-.613-1.457-.613-2.569 0-1.112.2-1.965.605-2.56.406-.601.993-.901 1.748-.901.759 0 1.338.3 1.74.901.41.595.617 1.448.617 2.56s-.207 1.968-.617 2.569c-.402.601-.977.901-1.729.901zm0-.676c.523 0 .925-.24 1.207-.721.282-.487.425-1.178.425-2.073s-.143-1.583-.425-2.064c-.282-.481-.688-.721-1.218-.721-.522 0-.924.24-1.206.721-.286.481-.425 1.169-.425 2.064s.139 1.586.425 2.073c.282.481.687.721 1.217.721zm3.484.568v-6.715h.722v3.921l-.162-.081 3.383-3.84h.902l-2.714 3.083.034-.514 2.841 4.146h-.864l-2.293-3.308-1.127 1.28v2.028h-.722z" fill="#000"/><path d="M359.297 208.809h-80.053c-7.887 0-14.281 6.389-14.281 14.271 0 7.882 6.394 14.271 14.281 14.271h80.053c7.887 0 14.281-6.389 14.281-14.271 0-7.882-6.394-14.271-14.281-14.271zm59.381 43.564h-110.87c-7.888 0-14.282 6.39-14.282 14.271 0 7.882 6.394 14.272 14.282 14.272h110.87c7.888 0 14.282-6.39 14.282-14.272 0-7.881-6.394-14.271-14.282-14.271z" fill="#E3EEF3" stroke="#000" stroke-width="2"/><path d="M363.055 274.156a7.515 7.515 0 007.517-7.512 7.514 7.514 0 00-7.517-7.511 7.514 7.514 0 00-7.517 7.511 7.515 7.515 0 007.517 7.512zm-43.973-43.565a7.514 7.514 0 007.517-7.511 7.514 7.514 0 00-7.517-7.511 7.514 7.514 0 00-7.516 7.511 7.514 7.514 0 007.516 7.511z" fill="#5489AD"/><path d="M287.512 165.244h-52.616c-7.888 0-14.282 6.39-14.282 14.271 0 7.882 6.394 14.272 14.282 14.272h52.616c7.888 0 14.282-6.39 14.282-14.272 0-7.881-6.394-14.271-14.282-14.271z" fill="#E3EEF3" stroke="#000" stroke-width="2"/><path d="M261.204 187.027a7.514 7.514 0 007.517-7.511 7.514 7.514 0 00-7.517-7.512 7.514 7.514 0 00-7.516 7.512 7.514 7.514 0 007.516 7.511z" fill="#5489AD"/><path d="M260.452 121.68h-40.59c-7.887 0-14.281 6.389-14.281 14.271 0 7.882 6.394 14.271 14.281 14.271h40.59c7.888 0 14.282-6.389 14.282-14.271 0-7.882-6.394-14.271-14.282-14.271z" fill="#E3EEF3" stroke="#000" stroke-width="2"/><path d="M240.158 143.462a7.514 7.514 0 007.516-7.511 7.514 7.514 0 00-7.516-7.511 7.514 7.514 0 00-7.517 7.511 7.514 7.514 0 007.517 7.511z" fill="#5489AD"/><path d="M191.299 78.115h-25.557c-7.887 0-14.281 6.39-14.281 14.272 0 7.881 6.394 14.271 14.281 14.271h25.557c7.888 0 14.282-6.39 14.282-14.271 0-7.882-6.394-14.272-14.282-14.272z" fill="#E3EEF3" stroke="#000" stroke-width="2"/><path d="M178.521 99.898a7.514 7.514 0 007.516-7.511 7.514 7.514 0 00-7.516-7.511 7.514 7.514 0 00-7.517 7.51 7.514 7.514 0 007.517 7.512z" fill="#5489AD"/><path d="M140.186 34.551h-10.523c-7.888 0-14.282 6.39-14.282 14.271 0 7.882 6.394 14.271 14.282 14.271h10.523c7.887 0 14.282-6.39 14.282-14.27 0-7.883-6.395-14.272-14.282-14.272z" fill="#E3EEF3" stroke="#000" stroke-width="2"/><path d="M134.924 56.333a7.514 7.514 0 007.517-7.51 7.514 7.514 0 00-7.517-7.512 7.514 7.514 0 00-7.517 7.511 7.514 7.514 0 007.517 7.511z" fill="#5489AD"/><path d="M444.987.563H6.013A5.448 5.448 0 00.563 6.01v325.98a5.448 5.448 0 005.45 5.446h438.974a5.448 5.448 0 005.449-5.446V6.009a5.448 5.448 0 00-5.449-5.446z" stroke="#000" stroke-width="3"/></g><defs><clipPath id="clip0_1_84"><path fill="#fff" d="M0 0h451v338H0z"/></clipPath></defs></svg>