<svg width="38" height="37" fill="none" xmlns="http://www.w3.org/2000/svg"><g clip-path="url(#clip0_1_352)"><path d="M18.676 0C8.466 0 .189 8.283.189 18.5S8.466 37 18.676 37c10.21 0 18.487-8.283 18.487-18.5S28.886 0 18.676 0zM14.15 26.168h-3.743V14.112h3.743v12.056zm-1.895-13.536c-1.182 0-1.947-.838-1.947-1.875 0-1.058.788-1.871 1.996-1.871 1.207 0 1.947.813 1.97 1.871 0 1.037-.763 1.875-2.018 1.875zm15.568 13.536H24.08v-6.681c0-1.555-.543-2.611-1.897-2.611-1.034 0-1.649.714-1.92 1.402-.1.245-.126.592-.126.937v6.95h-3.745v-8.208c0-1.506-.048-2.764-.098-3.847h3.252l.172 1.675h.075c.493-.787 1.7-1.947 3.72-1.947 2.463 0 4.31 1.652 4.31 5.202v7.128z" fill="#fff"/></g><defs><clipPath id="clip0_1_352"><path fill="#fff" d="M0 0h38v37H0z"/></clipPath></defs></svg>