<svg width="38" height="38" fill="none" xmlns="http://www.w3.org/2000/svg"><g clip-path="url(#clip0_1_358)"><path d="M19.423 37.356C29.683 37.356 38 29.038 38 18.778S29.683.201 19.423.201C9.163.201.845 8.518.845 18.778c0 10.26 8.318 18.578 18.578 18.578z" fill="#fff"/><path d="M27.647 13.722v-.01c.162-.063.29-.197.418-.296.58-.447.957-1.036 1.235-1.79l-.473.26c-.488.248-1.315.604-1.952.658-.75-.684-1.535-1.221-3.01-1.196-.155.02-.31.038-.465.056a4.67 4.67 0 00-.846.26c-1.08.469-1.816 1.344-2.155 2.558-.135.483-.19 1.29-.019 1.79a7.364 7.364 0 01-1.71-.223c-2.01-.495-3.263-1.164-4.653-2.252a6.98 6.98 0 01-1.134-1.085c-.105-.13-.27-.243-.344-.399a.358.358 0 01-.018-.009c-.162.3-.314.624-.409.992-.377 1.45.219 2.667.855 3.458.192.24.505.388.697.611h.018c-.144.054-.395-.02-.52-.046a4.26 4.26 0 01-.8-.222l-.39-.186c-.006 1.602.803 2.643 1.794 3.263.323.202.775.475 1.245.5-.252.213-1.327.115-1.7.075.466 1.202 1.183 2.003 2.415 2.438.318.112.706.211 1.133.204-.227.27-.711.49-1.03.676-.66.386-1.425.636-2.287.825-.345.076-.712.06-1.087.12-.414.067-.847-.035-1.217-.046.111.068.223.137.335.204.34.207.694.389 1.077.556.69.302 1.426.53 2.24.733 1.64.407 3.956.224 5.389-.223 3.99-1.244 6.51-4.148 7.46-8.426.165-.736.188-1.572.178-2.447l.594-.473c.491-.394.952-.943 1.292-1.484v-.009c-.648.203-1.33.576-2.156.585z" fill="#000"/></g><defs><clipPath id="clip0_1_358"><path fill="#fff" d="M0 0h38v38H0z"/></clipPath></defs></svg>